{
	"asset":{
		"generator":"Khronos glTF Blender I/O v5.2.40",
		"version":"2.0"
	},
	"scene":0,
	"scenes":[
		{
			"name":"Scene",
			"nodes":[
				5
			]
		}
	],
	"nodes":[
		{
			"name":"wingL",
			"rotation":[
				0,
				0,
				0.7071067690849304,
				0.7071067690849304
			],
			"translation":[
				-0.05000000074505806,
				0.07999999821186066,
				0.0299999937415123
			]
		},
		{
			"name":"wingR",
			"rotation":[
				0,
				0,
				-0.7071067690849304,
				0.7071067690849304
			],
			"translation":[
				0.05000000074505806,
				0.07999999821186066,
				0.0299999937415123
			]
		},
		{
			"children":[
				0,
				1
			],
			"name":"body",
			"rotation":[
				0,
				0.7071067690849304,
				0.7071067690849304,
				0
			],
			"translation":[
				0,
				0.10000000149011612,
				-0.07999999821186066
			]
		},
		{
			"mesh":0,
			"name":"bird_body",
			"skin":0
		},
		{
			"mesh":1,
			"name":"bird_wings",
			"skin":0
		},
		{
			"children":[
				3,
				4,
				2
			],
			"name":"bird"
		}
	],
	"animations":[
		{
			"channels":[
				{
					"sampler":0,
					"target":{
						"node":2,
						"path":"translation"
					}
				},
				{
					"sampler":1,
					"target":{
						"node":2,
						"path":"rotation"
					}
				},
				{
					"sampler":2,
					"target":{
						"node":2,
						"path":"scale"
					}
				},
				{
					"sampler":3,
					"target":{
						"node":0,
						"path":"translation"
					}
				},
				{
					"sampler":4,
					"target":{
						"node":0,
						"path":"rotation"
					}
				},
				{
					"sampler":5,
					"target":{
						"node":0,
						"path":"scale"
					}
				},
				{
					"sampler":6,
					"target":{
						"node":1,
						"path":"translation"
					}
				},
				{
					"sampler":7,
					"target":{
						"node":1,
						"path":"rotation"
					}
				},
				{
					"sampler":8,
					"target":{
						"node":1,
						"path":"scale"
					}
				}
			],
			"name":"fly",
			"samplers":[
				{
					"input":13,
					"interpolation":"LINEAR",
					"output":14
				},
				{
					"input":15,
					"interpolation":"STEP",
					"output":16
				},
				{
					"input":15,
					"interpolation":"STEP",
					"output":17
				},
				{
					"input":15,
					"interpolation":"STEP",
					"output":18
				},
				{
					"input":13,
					"interpolation":"LINEAR",
					"output":19
				},
				{
					"input":15,
					"interpolation":"STEP",
					"output":17
				},
				{
					"input":15,
					"interpolation":"STEP",
					"output":20
				},
				{
					"input":13,
					"interpolation":"LINEAR",
					"output":21
				},
				{
					"input":15,
					"interpolation":"STEP",
					"output":17
				}
			]
		},
		{
			"channels":[
				{
					"sampler":0,
					"target":{
						"node":2,
						"path":"translation"
					}
				},
				{
					"sampler":1,
					"target":{
						"node":2,
						"path":"rotation"
					}
				},
				{
					"sampler":2,
					"target":{
						"node":2,
						"path":"scale"
					}
				},
				{
					"sampler":3,
					"target":{
						"node":0,
						"path":"translation"
					}
				},
				{
					"sampler":4,
					"target":{
						"node":0,
						"path":"rotation"
					}
				},
				{
					"sampler":5,
					"target":{
						"node":0,
						"path":"scale"
					}
				},
				{
					"sampler":6,
					"target":{
						"node":1,
						"path":"translation"
					}
				},
				{
					"sampler":7,
					"target":{
						"node":1,
						"path":"rotation"
					}
				},
				{
					"sampler":8,
					"target":{
						"node":1,
						"path":"scale"
					}
				}
			],
			"name":"idle",
			"samplers":[
				{
					"input":22,
					"interpolation":"STEP",
					"output":23
				},
				{
					"input":24,
					"interpolation":"LINEAR",
					"output":25
				},
				{
					"input":22,
					"interpolation":"STEP",
					"output":17
				},
				{
					"input":22,
					"interpolation":"STEP",
					"output":18
				},
				{
					"input":22,
					"interpolation":"STEP",
					"output":26
				},
				{
					"input":22,
					"interpolation":"STEP",
					"output":27
				},
				{
					"input":22,
					"interpolation":"STEP",
					"output":20
				},
				{
					"input":22,
					"interpolation":"STEP",
					"output":28
				},
				{
					"input":22,
					"interpolation":"STEP",
					"output":27
				}
			]
		}
	],
	"materials":[
		{
			"doubleSided":true,
			"name":"palette",
			"pbrMetallicRoughness":{
				"metallicFactor":0,
				"roughnessFactor":0.6499999761581421
			}
		}
	],
	"meshes":[
		{
			"name":"bird_body",
			"primitives":[
				{
					"attributes":{
						"POSITION":0,
						"NORMAL":1,
						"COLOR_0":2,
						"JOINTS_0":3,
						"WEIGHTS_0":4
					},
					"indices":5,
					"material":0
				}
			]
		},
		{
			"name":"bird_wings",
			"primitives":[
				{
					"attributes":{
						"POSITION":7,
						"NORMAL":8,
						"COLOR_0":9,
						"JOINTS_0":10,
						"WEIGHTS_0":11
					},
					"indices":12,
					"material":0
				}
			]
		}
	],
	"skins":[
		{
			"inverseBindMatrices":6,
			"joints":[
				2,
				0,
				1
			],
			"name":"bird"
		}
	],
	"accessors":[
		{
			"bufferView":0,
			"componentType":5126,
			"count":354,
			"max":[
				0.06305038183927536,
				0.2150000035762787,
				0.20000000298023224
			],
			"min":[
				-0.06305038183927536,
				0.03199999779462814,
				-0.17954978346824646
			],
			"type":"VEC3"
		},
		{
			"bufferView":1,
			"componentType":5126,
			"count":354,
			"type":"VEC3"
		},
		{
			"bufferView":2,
			"componentType":5126,
			"count":354,
			"type":"VEC3"
		},
		{
			"bufferView":3,
			"componentType":5121,
			"count":354,
			"type":"VEC4"
		},
		{
			"bufferView":4,
			"componentType":5126,
			"count":354,
			"type":"VEC4"
		},
		{
			"bufferView":5,
			"componentType":5123,
			"count":1074,
			"type":"SCALAR"
		},
		{
			"bufferView":6,
			"componentType":5126,
			"count":3,
			"type":"MAT4"
		},
		{
			"bufferView":7,
			"componentType":5126,
			"count":48,
			"max":[
				0.19510513544082642,
				0.14637959003448486,
				0.04500000178813934
			],
			"min":[
				-0.19510513544082642,
				0.11362040042877197,
				-0.04500000178813934
			],
			"type":"VEC3"
		},
		{
			"bufferView":8,
			"componentType":5126,
			"count":48,
			"type":"VEC3"
		},
		{
			"bufferView":9,
			"componentType":5126,
			"count":48,
			"type":"VEC3"
		},
		{
			"bufferView":10,
			"componentType":5121,
			"count":48,
			"type":"VEC4"
		},
		{
			"bufferView":11,
			"componentType":5126,
			"count":48,
			"type":"VEC4"
		},
		{
			"bufferView":12,
			"componentType":5123,
			"count":72,
			"type":"SCALAR"
		},
		{
			"bufferView":13,
			"componentType":5126,
			"count":7,
			"max":[
				0.25
			],
			"min":[
				0
			],
			"type":"SCALAR"
		},
		{
			"bufferView":14,
			"componentType":5126,
			"count":7,
			"type":"VEC3"
		},
		{
			"bufferView":15,
			"componentType":5126,
			"count":2,
			"max":[
				0.25
			],
			"min":[
				0
			],
			"type":"SCALAR"
		},
		{
			"bufferView":16,
			"componentType":5126,
			"count":2,
			"type":"VEC4"
		},
		{
			"bufferView":17,
			"componentType":5126,
			"count":2,
			"type":"VEC3"
		},
		{
			"bufferView":18,
			"componentType":5126,
			"count":2,
			"type":"VEC3"
		},
		{
			"bufferView":19,
			"componentType":5126,
			"count":7,
			"type":"VEC4"
		},
		{
			"bufferView":20,
			"componentType":5126,
			"count":2,
			"type":"VEC3"
		},
		{
			"bufferView":21,
			"componentType":5126,
			"count":7,
			"type":"VEC4"
		},
		{
			"bufferView":22,
			"componentType":5126,
			"count":2,
			"max":[
				1
			],
			"min":[
				0
			],
			"type":"SCALAR"
		},
		{
			"bufferView":23,
			"componentType":5126,
			"count":2,
			"type":"VEC3"
		},
		{
			"bufferView":24,
			"componentType":5126,
			"count":25,
			"max":[
				1
			],
			"min":[
				0
			],
			"type":"SCALAR"
		},
		{
			"bufferView":25,
			"componentType":5126,
			"count":25,
			"type":"VEC4"
		},
		{
			"bufferView":26,
			"componentType":5126,
			"count":2,
			"type":"VEC4"
		},
		{
			"bufferView":27,
			"componentType":5126,
			"count":2,
			"type":"VEC3"
		},
		{
			"bufferView":28,
			"componentType":5126,
			"count":2,
			"type":"VEC4"
		}
	],
	"bufferViews":[
		{
			"buffer":0,
			"byteLength":4248,
			"byteOffset":0,
			"target":34962
		},
		{
			"buffer":0,
			"byteLength":4248,
			"byteOffset":4248,
			"target":34962
		},
		{
			"buffer":0,
			"byteLength":4248,
			"byteOffset":8496,
			"target":34962
		},
		{
			"buffer":0,
			"byteLength":1416,
			"byteOffset":12744,
			"target":34962
		},
		{
			"buffer":0,
			"byteLength":5664,
			"byteOffset":14160,
			"target":34962
		},
		{
			"buffer":0,
			"byteLength":2148,
			"byteOffset":19824,
			"target":34963
		},
		{
			"buffer":0,
			"byteLength":192,
			"byteOffset":21972
		},
		{
			"buffer":0,
			"byteLength":576,
			"byteOffset":22164,
			"target":34962
		},
		{
			"buffer":0,
			"byteLength":576,
			"byteOffset":22740,
			"target":34962
		},
		{
			"buffer":0,
			"byteLength":576,
			"byteOffset":23316,
			"target":34962
		},
		{
			"buffer":0,
			"byteLength":192,
			"byteOffset":23892,
			"target":34962
		},
		{
			"buffer":0,
			"byteLength":768,
			"byteOffset":24084,
			"target":34962
		},
		{
			"buffer":0,
			"byteLength":144,
			"byteOffset":24852,
			"target":34963
		},
		{
			"buffer":0,
			"byteLength":28,
			"byteOffset":24996
		},
		{
			"buffer":0,
			"byteLength":84,
			"byteOffset":25024
		},
		{
			"buffer":0,
			"byteLength":8,
			"byteOffset":25108
		},
		{
			"buffer":0,
			"byteLength":32,
			"byteOffset":25116
		},
		{
			"buffer":0,
			"byteLength":24,
			"byteOffset":25148
		},
		{
			"buffer":0,
			"byteLength":24,
			"byteOffset":25172
		},
		{
			"buffer":0,
			"byteLength":112,
			"byteOffset":25196
		},
		{
			"buffer":0,
			"byteLength":24,
			"byteOffset":25308
		},
		{
			"buffer":0,
			"byteLength":112,
			"byteOffset":25332
		},
		{
			"buffer":0,
			"byteLength":8,
			"byteOffset":25444
		},
		{
			"buffer":0,
			"byteLength":24,
			"byteOffset":25452
		},
		{
			"buffer":0,
			"byteLength":100,
			"byteOffset":25476
		},
		{
			"buffer":0,
			"byteLength":400,
			"byteOffset":25576
		},
		{
			"buffer":0,
			"byteLength":32,
			"byteOffset":25976
		},
		{
			"buffer":0,
			"byteLength":24,
			"byteOffset":26008
		},
		{
			"buffer":0,
			"byteLength":32,
			"byteOffset":26032
		}
	],
	"buffers":[
		{
			"byteLength":26064,
			"uri":"data:application/octet-stream;base64,"
		}
	]
}
