{
	"asset":{
		"generator":"Khronos glTF Blender I/O v5.2.40",
		"version":"2.0"
	},
	"scene":0,
	"scenes":[
		{
			"name":"Scene",
			"nodes":[
				0
			]
		}
	],
	"nodes":[
		{
			"mesh":0,
			"name":"bridge"
		}
	],
	"materials":[
		{
			"doubleSided":true,
			"name":"palette",
			"pbrMetallicRoughness":{
				"metallicFactor":0,
				"roughnessFactor":0.6499999761581421
			}
		}
	],
	"meshes":[
		{
			"name":"bridge",
			"primitives":[
				{
					"attributes":{
						"POSITION":0,
						"NORMAL":1,
						"COLOR_0":2
					},
					"indices":3,
					"material":0
				}
			]
		}
	],
	"accessors":[
		{
			"bufferView":0,
			"componentType":5126,
			"count":984,
			"max":[
				2.25,
				1.940000057220459,
				6
			],
			"min":[
				-2.25,
				0,
				-6
			],
			"type":"VEC3"
		},
		{
			"bufferView":1,
			"componentType":5126,
			"count":984,
			"type":"VEC3"
		},
		{
			"bufferView":2,
			"componentType":5126,
			"count":984,
			"type":"VEC3"
		},
		{
			"bufferView":3,
			"componentType":5123,
			"count":2100,
			"type":"SCALAR"
		}
	],
	"bufferViews":[
		{
			"buffer":0,
			"byteLength":11808,
			"byteOffset":0,
			"target":34962
		},
		{
			"buffer":0,
			"byteLength":11808,
			"byteOffset":11808,
			"target":34962
		},
		{
			"buffer":0,
			"byteLength":11808,
			"byteOffset":23616,
			"target":34962
		},
		{
			"buffer":0,
			"byteLength":4200,
			"byteOffset":35424,
			"target":34963
		}
	],
	"buffers":[
		{
			"byteLength":39624,
			"uri":"data:application/octet-stream;base64,"
		}
	]
}
