{
	"asset":{
		"generator":"Khronos glTF Blender I/O v5.2.40",
		"version":"2.0"
	},
	"scene":0,
	"scenes":[
		{
			"name":"Scene",
			"nodes":[
				0
			]
		}
	],
	"nodes":[
		{
			"mesh":0,
			"name":"broken_boards"
		}
	],
	"materials":[
		{
			"doubleSided":true,
			"name":"palette",
			"pbrMetallicRoughness":{
				"metallicFactor":0,
				"roughnessFactor":0.6499999761581421
			}
		}
	],
	"meshes":[
		{
			"name":"broken_boards",
			"primitives":[
				{
					"attributes":{
						"POSITION":0,
						"NORMAL":1,
						"COLOR_0":2
					},
					"indices":3,
					"material":0
				}
			]
		}
	],
	"accessors":[
		{
			"bufferView":0,
			"componentType":5126,
			"count":72,
			"max":[
				0.6544989943504333,
				1.0383567810058594,
				0.08500000089406967
			],
			"min":[
				-0.6544989943504333,
				0.16164320707321167,
				-0.02500000037252903
			],
			"type":"VEC3"
		},
		{
			"bufferView":1,
			"componentType":5126,
			"count":72,
			"type":"VEC3"
		},
		{
			"bufferView":2,
			"componentType":5126,
			"count":72,
			"type":"VEC3"
		},
		{
			"bufferView":3,
			"componentType":5123,
			"count":108,
			"type":"SCALAR"
		}
	],
	"bufferViews":[
		{
			"buffer":0,
			"byteLength":864,
			"byteOffset":0,
			"target":34962
		},
		{
			"buffer":0,
			"byteLength":864,
			"byteOffset":864,
			"target":34962
		},
		{
			"buffer":0,
			"byteLength":864,
			"byteOffset":1728,
			"target":34962
		},
		{
			"buffer":0,
			"byteLength":216,
			"byteOffset":2592,
			"target":34963
		}
	],
	"buffers":[
		{
			"byteLength":2808,
			"uri":"data:application/octet-stream;base64,"
		}
	]
}
