{
	"asset":{
		"generator":"Khronos glTF Blender I/O v4.2.70",
		"version":"2.0"
	},
	"scene":0,
	"scenes":[
		{
			"name":"Scene",
			"nodes":[
				0
			]
		}
	],
	"nodes":[
		{
			"mesh":0,
			"name":"car_stationwagon"
		}
	],
	"materials":[
		{
			"doubleSided":true,
			"name":"palette",
			"pbrMetallicRoughness":{
				"metallicFactor":0,
				"roughnessFactor":0.6499999761581421
			}
		}
	],
	"meshes":[
		{
			"name":"car_stationwagon",
			"primitives":[
				{
					"attributes":{
						"POSITION":0,
						"NORMAL":1,
						"COLOR_0":2
					},
					"indices":3,
					"material":0
				}
			]
		}
	],
	"accessors":[
		{
			"bufferView":0,
			"componentType":5126,
			"count":1660,
			"max":[
				1.0048918724060059,
				1.7689871788024902,
				2.25
			],
			"min":[
				-1.0048918724060059,
				0,
				-2.25
			],
			"type":"VEC3"
		},
		{
			"bufferView":1,
			"componentType":5126,
			"count":1660,
			"type":"VEC3"
		},
		{
			"bufferView":2,
			"componentType":5126,
			"count":1660,
			"type":"VEC3"
		},
		{
			"bufferView":3,
			"componentType":5123,
			"count":3702,
			"type":"SCALAR"
		}
	],
	"bufferViews":[
		{
			"buffer":0,
			"byteLength":19920,
			"byteOffset":0,
			"target":34962
		},
		{
			"buffer":0,
			"byteLength":19920,
			"byteOffset":19920,
			"target":34962
		},
		{
			"buffer":0,
			"byteLength":19920,
			"byteOffset":39840,
			"target":34962
		},
		{
			"buffer":0,
			"byteLength":7404,
			"byteOffset":59760,
			"target":34963
		}
	],
	"buffers":[
		{
			"byteLength":67164,
			"uri":"data:application/octet-stream;base64,"
		}
	]
}
