{
	"asset":{
		"generator":"Khronos glTF Blender I/O v4.2.70",
		"version":"2.0"
	},
	"scene":0,
	"scenes":[
		{
			"name":"Scene",
			"nodes":[
				0
			]
		}
	],
	"nodes":[
		{
			"mesh":0,
			"name":"car_hatchback"
		}
	],
	"materials":[
		{
			"doubleSided":true,
			"name":"palette",
			"pbrMetallicRoughness":{
				"metallicFactor":0,
				"roughnessFactor":0.6499999761581421
			}
		}
	],
	"meshes":[
		{
			"name":"car_hatchback",
			"primitives":[
				{
					"attributes":{
						"POSITION":0,
						"NORMAL":1,
						"COLOR_0":2
					},
					"indices":3,
					"material":0
				}
			]
		}
	],
	"accessors":[
		{
			"bufferView":0,
			"componentType":5126,
			"count":1562,
			"max":[
				0.9875354766845703,
				1.7384332418441772,
				1.8999998569488525
			],
			"min":[
				-0.9875354766845703,
				0,
				-1.8999998569488525
			],
			"type":"VEC3"
		},
		{
			"bufferView":1,
			"componentType":5126,
			"count":1562,
			"type":"VEC3"
		},
		{
			"bufferView":2,
			"componentType":5126,
			"count":1562,
			"type":"VEC3"
		},
		{
			"bufferView":3,
			"componentType":5123,
			"count":3582,
			"type":"SCALAR"
		}
	],
	"bufferViews":[
		{
			"buffer":0,
			"byteLength":18744,
			"byteOffset":0,
			"target":34962
		},
		{
			"buffer":0,
			"byteLength":18744,
			"byteOffset":18744,
			"target":34962
		},
		{
			"buffer":0,
			"byteLength":18744,
			"byteOffset":37488,
			"target":34962
		},
		{
			"buffer":0,
			"byteLength":7164,
			"byteOffset":56232,
			"target":34963
		}
	],
	"buffers":[
		{
			"byteLength":63396,
			"uri":"data:application/octet-stream;base64,"
		}
	]
}
