{
	"asset":{
		"generator":"Khronos glTF Blender I/O v4.2.70",
		"version":"2.0"
	},
	"scene":0,
	"scenes":[
		{
			"name":"Scene",
			"nodes":[
				0
			]
		}
	],
	"nodes":[
		{
			"mesh":0,
			"name":"car_sedan"
		}
	],
	"materials":[
		{
			"doubleSided":true,
			"name":"palette",
			"pbrMetallicRoughness":{
				"metallicFactor":0,
				"roughnessFactor":0.6499999761581421
			}
		}
	],
	"meshes":[
		{
			"name":"car_sedan",
			"primitives":[
				{
					"attributes":{
						"POSITION":0,
						"NORMAL":1,
						"COLOR_0":2
					},
					"indices":3,
					"material":0
				}
			]
		}
	],
	"accessors":[
		{
			"bufferView":0,
			"componentType":5126,
			"count":1615,
			"max":[
				0.937899112701416,
				1.6510546207427979,
				2.0999999046325684
			],
			"min":[
				-0.937899112701416,
				0,
				-2.0999999046325684
			],
			"type":"VEC3"
		},
		{
			"bufferView":1,
			"componentType":5126,
			"count":1615,
			"type":"VEC3"
		},
		{
			"bufferView":2,
			"componentType":5126,
			"count":1615,
			"type":"VEC3"
		},
		{
			"bufferView":3,
			"componentType":5123,
			"count":3666,
			"type":"SCALAR"
		}
	],
	"bufferViews":[
		{
			"buffer":0,
			"byteLength":19380,
			"byteOffset":0,
			"target":34962
		},
		{
			"buffer":0,
			"byteLength":19380,
			"byteOffset":19380,
			"target":34962
		},
		{
			"buffer":0,
			"byteLength":19380,
			"byteOffset":38760,
			"target":34962
		},
		{
			"buffer":0,
			"byteLength":7332,
			"byteOffset":58140,
			"target":34963
		}
	],
	"buffers":[
		{
			"byteLength":65472,
			"uri":"data:application/octet-stream;base64,"
		}
	]
}
