{
	"asset":{
		"generator":"Khronos glTF Blender I/O v5.2.40",
		"version":"2.0"
	},
	"scene":0,
	"scenes":[
		{
			"name":"Scene",
			"nodes":[
				38
			]
		}
	],
	"nodes":[
		{
			"name":"shinL",
			"rotation":[
				0.03866120055317879,
				0,
				0,
				0.9992523789405823
			],
			"scale":[
				1,
				0.9999999403953552,
				0.9999999403953552
			],
			"translation":[
				0,
				0.2801784873008728,
				-9.313225746154785e-10
			]
		},
		{
			"children":[
				0
			],
			"name":"legL",
			"rotation":[
				0.9998407363891602,
				0,
				0,
				0.017848603427410126
			],
			"scale":[
				1,
				1,
				1.0000003576278687
			],
			"translation":[
				0.10000000149011612,
				0,
				0
			]
		},
		{
			"name":"shinR",
			"rotation":[
				0.03866120055317879,
				0,
				0,
				0.9992523789405823
			],
			"scale":[
				1,
				0.9999999403953552,
				0.9999999403953552
			],
			"translation":[
				0,
				0.2801784873008728,
				-9.313225746154785e-10
			]
		},
		{
			"children":[
				2
			],
			"name":"legR",
			"rotation":[
				0.9998407363891602,
				0,
				0,
				0.017848603427410126
			],
			"scale":[
				1,
				1,
				1.0000003576278687
			],
			"translation":[
				-0.10000000149011612,
				0,
				0
			]
		},
		{
			"name":"handL",
			"rotation":[
				0.04368304833769798,
				-0.026782339438796043,
				0.030863946303725243,
				0.9982093572616577
			],
			"translation":[
				1.955777406692505e-08,
				0.21307282149791718,
				1.1175870895385742e-08
			]
		},
		{
			"children":[
				4
			],
			"name":"forearmL",
			"rotation":[
				-0.057141128927469254,
				-0.059114810079336166,
				0.04618678241968155,
				0.9955435991287231
			],
			"scale":[
				0.9999999403953552,
				1.0000001192092896,
				1
			],
			"translation":[
				1.4901161193847656e-08,
				0.23769746720790863,
				3.725290298461914e-09
			]
		},
		{
			"children":[
				5
			],
			"name":"armL",
			"rotation":[
				-0.983808696269989,
				-0.12621085345745087,
				-0.12621094286441803,
				0.016191359609365463
			],
			"scale":[
				0.9999989867210388,
				0.9999998211860657,
				1
			],
			"translation":[
				0.27000001072883606,
				0.3200000524520874,
				0
			]
		},
		{
			"name":"handR",
			"rotation":[
				0.04368304833769798,
				0.026782339438796043,
				-0.030863946303725243,
				0.9982093572616577
			],
			"translation":[
				-1.955777406692505e-08,
				0.21307282149791718,
				1.1175870895385742e-08
			]
		},
		{
			"children":[
				7
			],
			"name":"forearmR",
			"rotation":[
				-0.057141128927469254,
				0.059114810079336166,
				-0.04618678241968155,
				0.9955435991287231
			],
			"scale":[
				0.9999999403953552,
				1.0000001192092896,
				1
			],
			"translation":[
				-1.4901161193847656e-08,
				0.23769746720790863,
				3.725290298461914e-09
			]
		},
		{
			"children":[
				8
			],
			"name":"armR",
			"rotation":[
				-0.983808696269989,
				0.12621085345745087,
				0.12621094286441803,
				0.016191359609365463
			],
			"scale":[
				0.9999989867210388,
				0.9999998211860657,
				1
			],
			"translation":[
				-0.27000001072883606,
				0.3200000524520874,
				0
			]
		},
		{
			"name":"head",
			"translation":[
				0,
				0.4099999666213989,
				0
			]
		},
		{
			"children":[
				6,
				9,
				10
			],
			"name":"spine",
			"translation":[
				0,
				0.12999999523162842,
				0
			]
		},
		{
			"children":[
				1,
				3,
				11
			],
			"name":"hips",
			"translation":[
				0,
				0.6200000047683716,
				0
			]
		},
		{
			"mesh":0,
			"name":"acc_blazer",
			"skin":0
		},
		{
			"mesh":1,
			"name":"acc_briefcase",
			"skin":0
		},
		{
			"mesh":2,
			"name":"acc_chain",
			"skin":0
		},
		{
			"mesh":3,
			"name":"acc_clipboard",
			"skin":0
		},
		{
			"mesh":4,
			"name":"acc_flagpin",
			"skin":0
		},
		{
			"mesh":5,
			"name":"acc_hardhat",
			"skin":0
		},
		{
			"mesh":6,
			"name":"acc_jacket",
			"skin":0
		},
		{
			"mesh":7,
			"name":"acc_tester",
			"skin":0
		},
		{
			"mesh":8,
			"name":"acc_tie",
			"skin":0
		},
		{
			"mesh":9,
			"name":"acc_toolbelt",
			"skin":0
		},
		{
			"mesh":10,
			"name":"acc_vest",
			"skin":0
		},
		{
			"mesh":11,
			"name":"body",
			"skin":0
		},
		{
			"mesh":12,
			"name":"extra_beanie",
			"skin":0
		},
		{
			"mesh":13,
			"name":"extra_bowtie",
			"skin":0
		},
		{
			"mesh":14,
			"name":"extra_cap",
			"skin":0
		},
		{
			"mesh":15,
			"name":"extra_flower",
			"skin":0
		},
		{
			"mesh":16,
			"name":"extra_scarf",
			"skin":0
		},
		{
			"mesh":17,
			"name":"extra_sunglasses",
			"skin":0
		},
		{
			"mesh":18,
			"name":"face_calm",
			"skin":0
		},
		{
			"mesh":19,
			"name":"face_grin",
			"skin":0
		},
		{
			"mesh":20,
			"name":"face_smile",
			"skin":0
		},
		{
			"mesh":21,
			"name":"hair_bun",
			"skin":0
		},
		{
			"mesh":22,
			"name":"hair_curly",
			"skin":0
		},
		{
			"mesh":23,
			"name":"hair_long",
			"skin":0
		},
		{
			"mesh":24,
			"name":"hair_short",
			"skin":0
		},
		{
			"children":[
				13,
				14,
				15,
				16,
				17,
				18,
				19,
				20,
				21,
				22,
				23,
				24,
				25,
				26,
				27,
				28,
				29,
				30,
				31,
				32,
				33,
				34,
				35,
				36,
				37,
				12
			],
			"name":"character"
		}
	],
	"animations":[
		{
			"channels":[
				{
					"sampler":0,
					"target":{
						"node":12,
						"path":"translation"
					}
				},
				{
					"sampler":1,
					"target":{
						"node":12,
						"path":"rotation"
					}
				},
				{
					"sampler":2,
					"target":{
						"node":12,
						"path":"scale"
					}
				},
				{
					"sampler":3,
					"target":{
						"node":1,
						"path":"translation"
					}
				},
				{
					"sampler":4,
					"target":{
						"node":1,
						"path":"rotation"
					}
				},
				{
					"sampler":5,
					"target":{
						"node":1,
						"path":"scale"
					}
				},
				{
					"sampler":6,
					"target":{
						"node":0,
						"path":"translation"
					}
				},
				{
					"sampler":7,
					"target":{
						"node":0,
						"path":"rotation"
					}
				},
				{
					"sampler":8,
					"target":{
						"node":0,
						"path":"scale"
					}
				},
				{
					"sampler":9,
					"target":{
						"node":3,
						"path":"translation"
					}
				},
				{
					"sampler":10,
					"target":{
						"node":3,
						"path":"rotation"
					}
				},
				{
					"sampler":11,
					"target":{
						"node":3,
						"path":"scale"
					}
				},
				{
					"sampler":12,
					"target":{
						"node":2,
						"path":"translation"
					}
				},
				{
					"sampler":13,
					"target":{
						"node":2,
						"path":"rotation"
					}
				},
				{
					"sampler":14,
					"target":{
						"node":2,
						"path":"scale"
					}
				},
				{
					"sampler":15,
					"target":{
						"node":11,
						"path":"translation"
					}
				},
				{
					"sampler":16,
					"target":{
						"node":11,
						"path":"rotation"
					}
				},
				{
					"sampler":17,
					"target":{
						"node":11,
						"path":"scale"
					}
				},
				{
					"sampler":18,
					"target":{
						"node":6,
						"path":"translation"
					}
				},
				{
					"sampler":19,
					"target":{
						"node":6,
						"path":"rotation"
					}
				},
				{
					"sampler":20,
					"target":{
						"node":6,
						"path":"scale"
					}
				},
				{
					"sampler":21,
					"target":{
						"node":5,
						"path":"translation"
					}
				},
				{
					"sampler":22,
					"target":{
						"node":5,
						"path":"rotation"
					}
				},
				{
					"sampler":23,
					"target":{
						"node":5,
						"path":"scale"
					}
				},
				{
					"sampler":24,
					"target":{
						"node":4,
						"path":"translation"
					}
				},
				{
					"sampler":25,
					"target":{
						"node":4,
						"path":"rotation"
					}
				},
				{
					"sampler":26,
					"target":{
						"node":4,
						"path":"scale"
					}
				},
				{
					"sampler":27,
					"target":{
						"node":9,
						"path":"translation"
					}
				},
				{
					"sampler":28,
					"target":{
						"node":9,
						"path":"rotation"
					}
				},
				{
					"sampler":29,
					"target":{
						"node":9,
						"path":"scale"
					}
				},
				{
					"sampler":30,
					"target":{
						"node":8,
						"path":"translation"
					}
				},
				{
					"sampler":31,
					"target":{
						"node":8,
						"path":"rotation"
					}
				},
				{
					"sampler":32,
					"target":{
						"node":8,
						"path":"scale"
					}
				},
				{
					"sampler":33,
					"target":{
						"node":7,
						"path":"translation"
					}
				},
				{
					"sampler":34,
					"target":{
						"node":7,
						"path":"rotation"
					}
				},
				{
					"sampler":35,
					"target":{
						"node":7,
						"path":"scale"
					}
				},
				{
					"sampler":36,
					"target":{
						"node":10,
						"path":"translation"
					}
				},
				{
					"sampler":37,
					"target":{
						"node":10,
						"path":"rotation"
					}
				},
				{
					"sampler":38,
					"target":{
						"node":10,
						"path":"scale"
					}
				}
			],
			"name":"cheer",
			"samplers":[
				{
					"input":159,
					"interpolation":"LINEAR",
					"output":160
				},
				{
					"input":161,
					"interpolation":"STEP",
					"output":162
				},
				{
					"input":161,
					"interpolation":"STEP",
					"output":163
				},
				{
					"input":161,
					"interpolation":"STEP",
					"output":164
				},
				{
					"input":159,
					"interpolation":"LINEAR",
					"output":165
				},
				{
					"input":161,
					"interpolation":"STEP",
					"output":166
				},
				{
					"input":161,
					"interpolation":"STEP",
					"output":167
				},
				{
					"input":159,
					"interpolation":"LINEAR",
					"output":168
				},
				{
					"input":161,
					"interpolation":"STEP",
					"output":169
				},
				{
					"input":161,
					"interpolation":"STEP",
					"output":170
				},
				{
					"input":159,
					"interpolation":"LINEAR",
					"output":165
				},
				{
					"input":161,
					"interpolation":"STEP",
					"output":166
				},
				{
					"input":161,
					"interpolation":"STEP",
					"output":167
				},
				{
					"input":159,
					"interpolation":"LINEAR",
					"output":168
				},
				{
					"input":161,
					"interpolation":"STEP",
					"output":169
				},
				{
					"input":161,
					"interpolation":"STEP",
					"output":171
				},
				{
					"input":161,
					"interpolation":"STEP",
					"output":162
				},
				{
					"input":161,
					"interpolation":"STEP",
					"output":163
				},
				{
					"input":161,
					"interpolation":"STEP",
					"output":172
				},
				{
					"input":159,
					"interpolation":"LINEAR",
					"output":173
				},
				{
					"input":161,
					"interpolation":"STEP",
					"output":174
				},
				{
					"input":161,
					"interpolation":"STEP",
					"output":175
				},
				{
					"input":161,
					"interpolation":"STEP",
					"output":176
				},
				{
					"input":161,
					"interpolation":"STEP",
					"output":177
				},
				{
					"input":161,
					"interpolation":"STEP",
					"output":178
				},
				{
					"input":161,
					"interpolation":"STEP",
					"output":179
				},
				{
					"input":161,
					"interpolation":"STEP",
					"output":180
				},
				{
					"input":161,
					"interpolation":"STEP",
					"output":181
				},
				{
					"input":159,
					"interpolation":"LINEAR",
					"output":182
				},
				{
					"input":161,
					"interpolation":"STEP",
					"output":183
				},
				{
					"input":161,
					"interpolation":"STEP",
					"output":184
				},
				{
					"input":161,
					"interpolation":"STEP",
					"output":185
				},
				{
					"input":161,
					"interpolation":"STEP",
					"output":186
				},
				{
					"input":161,
					"interpolation":"STEP",
					"output":187
				},
				{
					"input":161,
					"interpolation":"STEP",
					"output":188
				},
				{
					"input":161,
					"interpolation":"STEP",
					"output":189
				},
				{
					"input":161,
					"interpolation":"STEP",
					"output":190
				},
				{
					"input":161,
					"interpolation":"STEP",
					"output":162
				},
				{
					"input":161,
					"interpolation":"STEP",
					"output":163
				}
			]
		},
		{
			"channels":[
				{
					"sampler":0,
					"target":{
						"node":12,
						"path":"translation"
					}
				},
				{
					"sampler":1,
					"target":{
						"node":12,
						"path":"rotation"
					}
				},
				{
					"sampler":2,
					"target":{
						"node":12,
						"path":"scale"
					}
				},
				{
					"sampler":3,
					"target":{
						"node":1,
						"path":"translation"
					}
				},
				{
					"sampler":4,
					"target":{
						"node":1,
						"path":"rotation"
					}
				},
				{
					"sampler":5,
					"target":{
						"node":1,
						"path":"scale"
					}
				},
				{
					"sampler":6,
					"target":{
						"node":0,
						"path":"translation"
					}
				},
				{
					"sampler":7,
					"target":{
						"node":0,
						"path":"rotation"
					}
				},
				{
					"sampler":8,
					"target":{
						"node":0,
						"path":"scale"
					}
				},
				{
					"sampler":9,
					"target":{
						"node":3,
						"path":"translation"
					}
				},
				{
					"sampler":10,
					"target":{
						"node":3,
						"path":"rotation"
					}
				},
				{
					"sampler":11,
					"target":{
						"node":3,
						"path":"scale"
					}
				},
				{
					"sampler":12,
					"target":{
						"node":2,
						"path":"translation"
					}
				},
				{
					"sampler":13,
					"target":{
						"node":2,
						"path":"rotation"
					}
				},
				{
					"sampler":14,
					"target":{
						"node":2,
						"path":"scale"
					}
				},
				{
					"sampler":15,
					"target":{
						"node":11,
						"path":"translation"
					}
				},
				{
					"sampler":16,
					"target":{
						"node":11,
						"path":"rotation"
					}
				},
				{
					"sampler":17,
					"target":{
						"node":11,
						"path":"scale"
					}
				},
				{
					"sampler":18,
					"target":{
						"node":6,
						"path":"translation"
					}
				},
				{
					"sampler":19,
					"target":{
						"node":6,
						"path":"rotation"
					}
				},
				{
					"sampler":20,
					"target":{
						"node":6,
						"path":"scale"
					}
				},
				{
					"sampler":21,
					"target":{
						"node":5,
						"path":"translation"
					}
				},
				{
					"sampler":22,
					"target":{
						"node":5,
						"path":"rotation"
					}
				},
				{
					"sampler":23,
					"target":{
						"node":5,
						"path":"scale"
					}
				},
				{
					"sampler":24,
					"target":{
						"node":4,
						"path":"translation"
					}
				},
				{
					"sampler":25,
					"target":{
						"node":4,
						"path":"rotation"
					}
				},
				{
					"sampler":26,
					"target":{
						"node":4,
						"path":"scale"
					}
				},
				{
					"sampler":27,
					"target":{
						"node":9,
						"path":"translation"
					}
				},
				{
					"sampler":28,
					"target":{
						"node":9,
						"path":"rotation"
					}
				},
				{
					"sampler":29,
					"target":{
						"node":9,
						"path":"scale"
					}
				},
				{
					"sampler":30,
					"target":{
						"node":8,
						"path":"translation"
					}
				},
				{
					"sampler":31,
					"target":{
						"node":8,
						"path":"rotation"
					}
				},
				{
					"sampler":32,
					"target":{
						"node":8,
						"path":"scale"
					}
				},
				{
					"sampler":33,
					"target":{
						"node":7,
						"path":"translation"
					}
				},
				{
					"sampler":34,
					"target":{
						"node":7,
						"path":"rotation"
					}
				},
				{
					"sampler":35,
					"target":{
						"node":7,
						"path":"scale"
					}
				},
				{
					"sampler":36,
					"target":{
						"node":10,
						"path":"translation"
					}
				},
				{
					"sampler":37,
					"target":{
						"node":10,
						"path":"rotation"
					}
				},
				{
					"sampler":38,
					"target":{
						"node":10,
						"path":"scale"
					}
				}
			],
			"name":"idle",
			"samplers":[
				{
					"input":191,
					"interpolation":"LINEAR",
					"output":192
				},
				{
					"input":193,
					"interpolation":"STEP",
					"output":162
				},
				{
					"input":193,
					"interpolation":"STEP",
					"output":163
				},
				{
					"input":193,
					"interpolation":"STEP",
					"output":164
				},
				{
					"input":193,
					"interpolation":"STEP",
					"output":194
				},
				{
					"input":193,
					"interpolation":"STEP",
					"output":166
				},
				{
					"input":193,
					"interpolation":"STEP",
					"output":195
				},
				{
					"input":193,
					"interpolation":"STEP",
					"output":196
				},
				{
					"input":193,
					"interpolation":"STEP",
					"output":169
				},
				{
					"input":193,
					"interpolation":"STEP",
					"output":170
				},
				{
					"input":193,
					"interpolation":"STEP",
					"output":194
				},
				{
					"input":193,
					"interpolation":"STEP",
					"output":166
				},
				{
					"input":193,
					"interpolation":"STEP",
					"output":195
				},
				{
					"input":193,
					"interpolation":"STEP",
					"output":196
				},
				{
					"input":193,
					"interpolation":"STEP",
					"output":169
				},
				{
					"input":193,
					"interpolation":"STEP",
					"output":171
				},
				{
					"input":191,
					"interpolation":"LINEAR",
					"output":197
				},
				{
					"input":193,
					"interpolation":"STEP",
					"output":163
				},
				{
					"input":193,
					"interpolation":"STEP",
					"output":198
				},
				{
					"input":191,
					"interpolation":"LINEAR",
					"output":199
				},
				{
					"input":193,
					"interpolation":"STEP",
					"output":200
				},
				{
					"input":193,
					"interpolation":"STEP",
					"output":201
				},
				{
					"input":193,
					"interpolation":"STEP",
					"output":202
				},
				{
					"input":193,
					"interpolation":"STEP",
					"output":203
				},
				{
					"input":193,
					"interpolation":"STEP",
					"output":204
				},
				{
					"input":193,
					"interpolation":"STEP",
					"output":205
				},
				{
					"input":193,
					"interpolation":"STEP",
					"output":186
				},
				{
					"input":193,
					"interpolation":"STEP",
					"output":206
				},
				{
					"input":191,
					"interpolation":"LINEAR",
					"output":207
				},
				{
					"input":193,
					"interpolation":"STEP",
					"output":200
				},
				{
					"input":193,
					"interpolation":"STEP",
					"output":208
				},
				{
					"input":193,
					"interpolation":"STEP",
					"output":209
				},
				{
					"input":193,
					"interpolation":"STEP",
					"output":203
				},
				{
					"input":193,
					"interpolation":"STEP",
					"output":210
				},
				{
					"input":193,
					"interpolation":"STEP",
					"output":211
				},
				{
					"input":193,
					"interpolation":"STEP",
					"output":186
				},
				{
					"input":193,
					"interpolation":"STEP",
					"output":190
				},
				{
					"input":191,
					"interpolation":"LINEAR",
					"output":212
				},
				{
					"input":193,
					"interpolation":"STEP",
					"output":163
				}
			]
		},
		{
			"channels":[
				{
					"sampler":0,
					"target":{
						"node":12,
						"path":"translation"
					}
				},
				{
					"sampler":1,
					"target":{
						"node":12,
						"path":"rotation"
					}
				},
				{
					"sampler":2,
					"target":{
						"node":12,
						"path":"scale"
					}
				},
				{
					"sampler":3,
					"target":{
						"node":1,
						"path":"translation"
					}
				},
				{
					"sampler":4,
					"target":{
						"node":1,
						"path":"rotation"
					}
				},
				{
					"sampler":5,
					"target":{
						"node":1,
						"path":"scale"
					}
				},
				{
					"sampler":6,
					"target":{
						"node":0,
						"path":"translation"
					}
				},
				{
					"sampler":7,
					"target":{
						"node":0,
						"path":"rotation"
					}
				},
				{
					"sampler":8,
					"target":{
						"node":0,
						"path":"scale"
					}
				},
				{
					"sampler":9,
					"target":{
						"node":3,
						"path":"translation"
					}
				},
				{
					"sampler":10,
					"target":{
						"node":3,
						"path":"rotation"
					}
				},
				{
					"sampler":11,
					"target":{
						"node":3,
						"path":"scale"
					}
				},
				{
					"sampler":12,
					"target":{
						"node":2,
						"path":"translation"
					}
				},
				{
					"sampler":13,
					"target":{
						"node":2,
						"path":"rotation"
					}
				},
				{
					"sampler":14,
					"target":{
						"node":2,
						"path":"scale"
					}
				},
				{
					"sampler":15,
					"target":{
						"node":11,
						"path":"translation"
					}
				},
				{
					"sampler":16,
					"target":{
						"node":11,
						"path":"rotation"
					}
				},
				{
					"sampler":17,
					"target":{
						"node":11,
						"path":"scale"
					}
				},
				{
					"sampler":18,
					"target":{
						"node":6,
						"path":"translation"
					}
				},
				{
					"sampler":19,
					"target":{
						"node":6,
						"path":"rotation"
					}
				},
				{
					"sampler":20,
					"target":{
						"node":6,
						"path":"scale"
					}
				},
				{
					"sampler":21,
					"target":{
						"node":5,
						"path":"translation"
					}
				},
				{
					"sampler":22,
					"target":{
						"node":5,
						"path":"rotation"
					}
				},
				{
					"sampler":23,
					"target":{
						"node":5,
						"path":"scale"
					}
				},
				{
					"sampler":24,
					"target":{
						"node":4,
						"path":"translation"
					}
				},
				{
					"sampler":25,
					"target":{
						"node":4,
						"path":"rotation"
					}
				},
				{
					"sampler":26,
					"target":{
						"node":4,
						"path":"scale"
					}
				},
				{
					"sampler":27,
					"target":{
						"node":9,
						"path":"translation"
					}
				},
				{
					"sampler":28,
					"target":{
						"node":9,
						"path":"rotation"
					}
				},
				{
					"sampler":29,
					"target":{
						"node":9,
						"path":"scale"
					}
				},
				{
					"sampler":30,
					"target":{
						"node":8,
						"path":"translation"
					}
				},
				{
					"sampler":31,
					"target":{
						"node":8,
						"path":"rotation"
					}
				},
				{
					"sampler":32,
					"target":{
						"node":8,
						"path":"scale"
					}
				},
				{
					"sampler":33,
					"target":{
						"node":7,
						"path":"translation"
					}
				},
				{
					"sampler":34,
					"target":{
						"node":7,
						"path":"rotation"
					}
				},
				{
					"sampler":35,
					"target":{
						"node":7,
						"path":"scale"
					}
				},
				{
					"sampler":36,
					"target":{
						"node":10,
						"path":"translation"
					}
				},
				{
					"sampler":37,
					"target":{
						"node":10,
						"path":"rotation"
					}
				},
				{
					"sampler":38,
					"target":{
						"node":10,
						"path":"scale"
					}
				}
			],
			"name":"walk",
			"samplers":[
				{
					"input":213,
					"interpolation":"LINEAR",
					"output":214
				},
				{
					"input":215,
					"interpolation":"STEP",
					"output":162
				},
				{
					"input":215,
					"interpolation":"STEP",
					"output":163
				},
				{
					"input":215,
					"interpolation":"STEP",
					"output":164
				},
				{
					"input":213,
					"interpolation":"LINEAR",
					"output":216
				},
				{
					"input":215,
					"interpolation":"STEP",
					"output":217
				},
				{
					"input":215,
					"interpolation":"STEP",
					"output":218
				},
				{
					"input":213,
					"interpolation":"LINEAR",
					"output":219
				},
				{
					"input":215,
					"interpolation":"STEP",
					"output":169
				},
				{
					"input":215,
					"interpolation":"STEP",
					"output":170
				},
				{
					"input":213,
					"interpolation":"LINEAR",
					"output":220
				},
				{
					"input":215,
					"interpolation":"STEP",
					"output":221
				},
				{
					"input":215,
					"interpolation":"STEP",
					"output":222
				},
				{
					"input":213,
					"interpolation":"LINEAR",
					"output":223
				},
				{
					"input":215,
					"interpolation":"STEP",
					"output":169
				},
				{
					"input":215,
					"interpolation":"STEP",
					"output":171
				},
				{
					"input":213,
					"interpolation":"LINEAR",
					"output":224
				},
				{
					"input":215,
					"interpolation":"STEP",
					"output":163
				},
				{
					"input":215,
					"interpolation":"STEP",
					"output":225
				},
				{
					"input":213,
					"interpolation":"LINEAR",
					"output":226
				},
				{
					"input":215,
					"interpolation":"STEP",
					"output":227
				},
				{
					"input":215,
					"interpolation":"STEP",
					"output":228
				},
				{
					"input":215,
					"interpolation":"STEP",
					"output":229
				},
				{
					"input":215,
					"interpolation":"STEP",
					"output":230
				},
				{
					"input":215,
					"interpolation":"STEP",
					"output":231
				},
				{
					"input":215,
					"interpolation":"STEP",
					"output":232
				},
				{
					"input":215,
					"interpolation":"STEP",
					"output":233
				},
				{
					"input":215,
					"interpolation":"STEP",
					"output":234
				},
				{
					"input":213,
					"interpolation":"LINEAR",
					"output":235
				},
				{
					"input":215,
					"interpolation":"STEP",
					"output":236
				},
				{
					"input":215,
					"interpolation":"STEP",
					"output":237
				},
				{
					"input":215,
					"interpolation":"STEP",
					"output":238
				},
				{
					"input":215,
					"interpolation":"STEP",
					"output":239
				},
				{
					"input":215,
					"interpolation":"STEP",
					"output":240
				},
				{
					"input":215,
					"interpolation":"STEP",
					"output":241
				},
				{
					"input":215,
					"interpolation":"STEP",
					"output":163
				},
				{
					"input":215,
					"interpolation":"STEP",
					"output":242
				},
				{
					"input":215,
					"interpolation":"STEP",
					"output":162
				},
				{
					"input":215,
					"interpolation":"STEP",
					"output":163
				}
			]
		},
		{
			"channels":[
				{
					"sampler":0,
					"target":{
						"node":12,
						"path":"translation"
					}
				},
				{
					"sampler":1,
					"target":{
						"node":12,
						"path":"rotation"
					}
				},
				{
					"sampler":2,
					"target":{
						"node":12,
						"path":"scale"
					}
				},
				{
					"sampler":3,
					"target":{
						"node":1,
						"path":"translation"
					}
				},
				{
					"sampler":4,
					"target":{
						"node":1,
						"path":"rotation"
					}
				},
				{
					"sampler":5,
					"target":{
						"node":1,
						"path":"scale"
					}
				},
				{
					"sampler":6,
					"target":{
						"node":0,
						"path":"translation"
					}
				},
				{
					"sampler":7,
					"target":{
						"node":0,
						"path":"rotation"
					}
				},
				{
					"sampler":8,
					"target":{
						"node":0,
						"path":"scale"
					}
				},
				{
					"sampler":9,
					"target":{
						"node":3,
						"path":"translation"
					}
				},
				{
					"sampler":10,
					"target":{
						"node":3,
						"path":"rotation"
					}
				},
				{
					"sampler":11,
					"target":{
						"node":3,
						"path":"scale"
					}
				},
				{
					"sampler":12,
					"target":{
						"node":2,
						"path":"translation"
					}
				},
				{
					"sampler":13,
					"target":{
						"node":2,
						"path":"rotation"
					}
				},
				{
					"sampler":14,
					"target":{
						"node":2,
						"path":"scale"
					}
				},
				{
					"sampler":15,
					"target":{
						"node":11,
						"path":"translation"
					}
				},
				{
					"sampler":16,
					"target":{
						"node":11,
						"path":"rotation"
					}
				},
				{
					"sampler":17,
					"target":{
						"node":11,
						"path":"scale"
					}
				},
				{
					"sampler":18,
					"target":{
						"node":6,
						"path":"translation"
					}
				},
				{
					"sampler":19,
					"target":{
						"node":6,
						"path":"rotation"
					}
				},
				{
					"sampler":20,
					"target":{
						"node":6,
						"path":"scale"
					}
				},
				{
					"sampler":21,
					"target":{
						"node":5,
						"path":"translation"
					}
				},
				{
					"sampler":22,
					"target":{
						"node":5,
						"path":"rotation"
					}
				},
				{
					"sampler":23,
					"target":{
						"node":5,
						"path":"scale"
					}
				},
				{
					"sampler":24,
					"target":{
						"node":4,
						"path":"translation"
					}
				},
				{
					"sampler":25,
					"target":{
						"node":4,
						"path":"rotation"
					}
				},
				{
					"sampler":26,
					"target":{
						"node":4,
						"path":"scale"
					}
				},
				{
					"sampler":27,
					"target":{
						"node":9,
						"path":"translation"
					}
				},
				{
					"sampler":28,
					"target":{
						"node":9,
						"path":"rotation"
					}
				},
				{
					"sampler":29,
					"target":{
						"node":9,
						"path":"scale"
					}
				},
				{
					"sampler":30,
					"target":{
						"node":8,
						"path":"translation"
					}
				},
				{
					"sampler":31,
					"target":{
						"node":8,
						"path":"rotation"
					}
				},
				{
					"sampler":32,
					"target":{
						"node":8,
						"path":"scale"
					}
				},
				{
					"sampler":33,
					"target":{
						"node":7,
						"path":"translation"
					}
				},
				{
					"sampler":34,
					"target":{
						"node":7,
						"path":"rotation"
					}
				},
				{
					"sampler":35,
					"target":{
						"node":7,
						"path":"scale"
					}
				},
				{
					"sampler":36,
					"target":{
						"node":10,
						"path":"translation"
					}
				},
				{
					"sampler":37,
					"target":{
						"node":10,
						"path":"rotation"
					}
				},
				{
					"sampler":38,
					"target":{
						"node":10,
						"path":"scale"
					}
				}
			],
			"name":"wave",
			"samplers":[
				{
					"input":243,
					"interpolation":"STEP",
					"output":244
				},
				{
					"input":243,
					"interpolation":"STEP",
					"output":162
				},
				{
					"input":243,
					"interpolation":"STEP",
					"output":163
				},
				{
					"input":243,
					"interpolation":"STEP",
					"output":164
				},
				{
					"input":243,
					"interpolation":"STEP",
					"output":194
				},
				{
					"input":243,
					"interpolation":"STEP",
					"output":166
				},
				{
					"input":243,
					"interpolation":"STEP",
					"output":195
				},
				{
					"input":243,
					"interpolation":"STEP",
					"output":196
				},
				{
					"input":243,
					"interpolation":"STEP",
					"output":169
				},
				{
					"input":243,
					"interpolation":"STEP",
					"output":170
				},
				{
					"input":243,
					"interpolation":"STEP",
					"output":194
				},
				{
					"input":243,
					"interpolation":"STEP",
					"output":166
				},
				{
					"input":243,
					"interpolation":"STEP",
					"output":195
				},
				{
					"input":243,
					"interpolation":"STEP",
					"output":196
				},
				{
					"input":243,
					"interpolation":"STEP",
					"output":169
				},
				{
					"input":243,
					"interpolation":"STEP",
					"output":171
				},
				{
					"input":243,
					"interpolation":"STEP",
					"output":162
				},
				{
					"input":243,
					"interpolation":"STEP",
					"output":163
				},
				{
					"input":243,
					"interpolation":"STEP",
					"output":198
				},
				{
					"input":243,
					"interpolation":"STEP",
					"output":245
				},
				{
					"input":243,
					"interpolation":"STEP",
					"output":200
				},
				{
					"input":243,
					"interpolation":"STEP",
					"output":201
				},
				{
					"input":243,
					"interpolation":"STEP",
					"output":202
				},
				{
					"input":243,
					"interpolation":"STEP",
					"output":203
				},
				{
					"input":243,
					"interpolation":"STEP",
					"output":204
				},
				{
					"input":243,
					"interpolation":"STEP",
					"output":205
				},
				{
					"input":243,
					"interpolation":"STEP",
					"output":186
				},
				{
					"input":243,
					"interpolation":"STEP",
					"output":206
				},
				{
					"input":243,
					"interpolation":"STEP",
					"output":246
				},
				{
					"input":243,
					"interpolation":"STEP",
					"output":247
				},
				{
					"input":243,
					"interpolation":"STEP",
					"output":248
				},
				{
					"input":249,
					"interpolation":"LINEAR",
					"output":250
				},
				{
					"input":243,
					"interpolation":"STEP",
					"output":251
				},
				{
					"input":243,
					"interpolation":"STEP",
					"output":252
				},
				{
					"input":243,
					"interpolation":"STEP",
					"output":253
				},
				{
					"input":243,
					"interpolation":"STEP",
					"output":254
				},
				{
					"input":243,
					"interpolation":"STEP",
					"output":190
				},
				{
					"input":243,
					"interpolation":"STEP",
					"output":255
				},
				{
					"input":243,
					"interpolation":"STEP",
					"output":256
				}
			]
		}
	],
	"materials":[
		{
			"doubleSided":true,
			"name":"Jacket",
			"pbrMetallicRoughness":{
				"baseColorFactor":[
					0.20507873594760895,
					0.24228112399578094,
					0.2961382567882538,
					1
				],
				"metallicFactor":0,
				"roughnessFactor":0.8999999761581421
			}
		},
		{
			"doubleSided":true,
			"name":"palette",
			"pbrMetallicRoughness":{
				"metallicFactor":0,
				"roughnessFactor":0.6499999761581421
			}
		},
		{
			"doubleSided":true,
			"name":"Skin",
			"pbrMetallicRoughness":{
				"baseColorFactor":[
					0.8796223998069763,
					0.5394794940948486,
					0.20507873594760895,
					1
				],
				"metallicFactor":0,
				"roughnessFactor":0.8999999761581421
			}
		},
		{
			"doubleSided":true,
			"name":"Shirt",
			"pbrMetallicRoughness":{
				"baseColorFactor":[
					0.2541520893573761,
					0.32314321398735046,
					0.3915724754333496,
					1
				],
				"metallicFactor":0,
				"roughnessFactor":0.8999999761581421
			}
		},
		{
			"doubleSided":true,
			"name":"Pants",
			"pbrMetallicRoughness":{
				"baseColorFactor":[
					0.06847816705703735,
					0.109461709856987,
					0.1946178376674652,
					1
				],
				"metallicFactor":0,
				"roughnessFactor":0.8999999761581421
			}
		},
		{
			"doubleSided":true,
			"name":"Shoes",
			"pbrMetallicRoughness":{
				"baseColorFactor":[
					0.1946178376674652,
					0.08437620848417282,
					0.03310476616024971,
					1
				],
				"metallicFactor":0,
				"roughnessFactor":0.8999999761581421
			}
		},
		{
			"doubleSided":true,
			"name":"Hair",
			"pbrMetallicRoughness":{
				"baseColorFactor":[
					0.10461648553609848,
					0.0423114113509655,
					0.022173885256052017,
					1
				],
				"metallicFactor":0,
				"roughnessFactor":0.8999999761581421
			}
		}
	],
	"meshes":[
		{
			"name":"acc_blazer",
			"primitives":[
				{
					"attributes":{
						"POSITION":0,
						"NORMAL":1,
						"JOINTS_0":2,
						"WEIGHTS_0":3
					},
					"indices":4,
					"material":0
				}
			]
		},
		{
			"name":"acc_briefcase",
			"primitives":[
				{
					"attributes":{
						"POSITION":6,
						"NORMAL":7,
						"COLOR_0":8,
						"JOINTS_0":9,
						"WEIGHTS_0":10
					},
					"indices":11,
					"material":1
				}
			]
		},
		{
			"name":"acc_chain",
			"primitives":[
				{
					"attributes":{
						"POSITION":12,
						"NORMAL":13,
						"COLOR_0":14,
						"JOINTS_0":15,
						"WEIGHTS_0":16
					},
					"indices":17,
					"material":1
				}
			]
		},
		{
			"name":"acc_clipboard",
			"primitives":[
				{
					"attributes":{
						"POSITION":18,
						"NORMAL":19,
						"COLOR_0":20,
						"JOINTS_0":21,
						"WEIGHTS_0":22
					},
					"indices":23,
					"material":1
				}
			]
		},
		{
			"name":"acc_flagpin",
			"primitives":[
				{
					"attributes":{
						"POSITION":24,
						"NORMAL":25,
						"COLOR_0":26,
						"JOINTS_0":27,
						"WEIGHTS_0":28
					},
					"indices":29,
					"material":1
				}
			]
		},
		{
			"name":"acc_hardhat",
			"primitives":[
				{
					"attributes":{
						"POSITION":30,
						"NORMAL":31,
						"COLOR_0":32,
						"JOINTS_0":33,
						"WEIGHTS_0":34
					},
					"indices":35,
					"material":1
				}
			]
		},
		{
			"name":"acc_jacket",
			"primitives":[
				{
					"attributes":{
						"POSITION":36,
						"NORMAL":37,
						"JOINTS_0":38,
						"WEIGHTS_0":39
					},
					"indices":40,
					"material":0
				}
			]
		},
		{
			"name":"acc_tester",
			"primitives":[
				{
					"attributes":{
						"POSITION":41,
						"NORMAL":42,
						"COLOR_0":43,
						"JOINTS_0":44,
						"WEIGHTS_0":45
					},
					"indices":46,
					"material":1
				}
			]
		},
		{
			"name":"acc_tie",
			"primitives":[
				{
					"attributes":{
						"POSITION":47,
						"NORMAL":48,
						"COLOR_0":49,
						"JOINTS_0":50,
						"WEIGHTS_0":51
					},
					"indices":52,
					"material":1
				}
			]
		},
		{
			"name":"acc_toolbelt",
			"primitives":[
				{
					"attributes":{
						"POSITION":53,
						"NORMAL":54,
						"COLOR_0":55,
						"JOINTS_0":56,
						"WEIGHTS_0":57
					},
					"indices":58,
					"material":1
				}
			]
		},
		{
			"name":"acc_vest",
			"primitives":[
				{
					"attributes":{
						"POSITION":59,
						"NORMAL":60,
						"COLOR_0":61,
						"JOINTS_0":62,
						"WEIGHTS_0":63
					},
					"indices":64,
					"material":1
				}
			]
		},
		{
			"name":"body",
			"primitives":[
				{
					"attributes":{
						"POSITION":65,
						"NORMAL":66,
						"JOINTS_0":67,
						"WEIGHTS_0":68
					},
					"indices":69,
					"material":2
				},
				{
					"attributes":{
						"POSITION":70,
						"NORMAL":71,
						"JOINTS_0":72,
						"WEIGHTS_0":73
					},
					"indices":74,
					"material":3
				},
				{
					"attributes":{
						"POSITION":75,
						"NORMAL":76,
						"JOINTS_0":77,
						"WEIGHTS_0":78
					},
					"indices":79,
					"material":4
				},
				{
					"attributes":{
						"POSITION":80,
						"NORMAL":81,
						"JOINTS_0":82,
						"WEIGHTS_0":83
					},
					"indices":84,
					"material":5
				}
			]
		},
		{
			"name":"extra_beanie",
			"primitives":[
				{
					"attributes":{
						"POSITION":85,
						"NORMAL":86,
						"COLOR_0":87,
						"JOINTS_0":88,
						"WEIGHTS_0":89
					},
					"indices":90,
					"material":1
				}
			]
		},
		{
			"name":"extra_bowtie",
			"primitives":[
				{
					"attributes":{
						"POSITION":91,
						"NORMAL":92,
						"COLOR_0":93,
						"JOINTS_0":94,
						"WEIGHTS_0":95
					},
					"indices":96,
					"material":1
				}
			]
		},
		{
			"name":"extra_cap",
			"primitives":[
				{
					"attributes":{
						"POSITION":97,
						"NORMAL":98,
						"COLOR_0":99,
						"JOINTS_0":100,
						"WEIGHTS_0":101
					},
					"indices":102,
					"material":1
				}
			]
		},
		{
			"name":"extra_flower",
			"primitives":[
				{
					"attributes":{
						"POSITION":103,
						"NORMAL":104,
						"COLOR_0":105,
						"JOINTS_0":106,
						"WEIGHTS_0":107
					},
					"indices":108,
					"material":1
				}
			]
		},
		{
			"name":"extra_scarf",
			"primitives":[
				{
					"attributes":{
						"POSITION":109,
						"NORMAL":110,
						"COLOR_0":111,
						"JOINTS_0":112,
						"WEIGHTS_0":113
					},
					"indices":114,
					"material":1
				}
			]
		},
		{
			"name":"extra_sunglasses",
			"primitives":[
				{
					"attributes":{
						"POSITION":115,
						"NORMAL":116,
						"COLOR_0":117,
						"JOINTS_0":118,
						"WEIGHTS_0":119
					},
					"indices":120,
					"material":1
				}
			]
		},
		{
			"name":"face_calm",
			"primitives":[
				{
					"attributes":{
						"POSITION":121,
						"NORMAL":122,
						"COLOR_0":123,
						"JOINTS_0":124,
						"WEIGHTS_0":125
					},
					"indices":126,
					"material":1
				}
			]
		},
		{
			"name":"face_grin",
			"primitives":[
				{
					"attributes":{
						"POSITION":127,
						"NORMAL":128,
						"COLOR_0":129,
						"JOINTS_0":130,
						"WEIGHTS_0":131
					},
					"indices":132,
					"material":1
				}
			]
		},
		{
			"name":"face_smile",
			"primitives":[
				{
					"attributes":{
						"POSITION":133,
						"NORMAL":134,
						"COLOR_0":135,
						"JOINTS_0":136,
						"WEIGHTS_0":137
					},
					"indices":138,
					"material":1
				}
			]
		},
		{
			"name":"hair_bun",
			"primitives":[
				{
					"attributes":{
						"POSITION":139,
						"NORMAL":140,
						"JOINTS_0":141,
						"WEIGHTS_0":142
					},
					"indices":143,
					"material":6
				}
			]
		},
		{
			"name":"hair_curly",
			"primitives":[
				{
					"attributes":{
						"POSITION":144,
						"NORMAL":145,
						"JOINTS_0":146,
						"WEIGHTS_0":147
					},
					"indices":148,
					"material":6
				}
			]
		},
		{
			"name":"hair_long",
			"primitives":[
				{
					"attributes":{
						"POSITION":149,
						"NORMAL":150,
						"JOINTS_0":151,
						"WEIGHTS_0":152
					},
					"indices":153,
					"material":6
				}
			]
		},
		{
			"name":"hair_short",
			"primitives":[
				{
					"attributes":{
						"POSITION":154,
						"NORMAL":155,
						"JOINTS_0":156,
						"WEIGHTS_0":157
					},
					"indices":158,
					"material":6
				}
			]
		}
	],
	"skins":[
		{
			"inverseBindMatrices":5,
			"joints":[
				12,
				1,
				0,
				3,
				2,
				11,
				6,
				5,
				4,
				9,
				8,
				7,
				10
			],
			"name":"character"
		}
	],
	"accessors":[
		{
			"bufferView":0,
			"componentType":5126,
			"count":244,
			"max":[
				0.4142964482307434,
				1.12347412109375,
				0.1979999989271164
			],
			"min":[
				-0.4142964482307434,
				0.5600000023841858,
				-0.18799999356269836
			],
			"type":"VEC3"
		},
		{
			"bufferView":1,
			"componentType":5126,
			"count":244,
			"type":"VEC3"
		},
		{
			"bufferView":2,
			"componentType":5121,
			"count":244,
			"type":"VEC4"
		},
		{
			"bufferView":3,
			"componentType":5126,
			"count":244,
			"type":"VEC4"
		},
		{
			"bufferView":4,
			"componentType":5123,
			"count":624,
			"type":"SCALAR"
		},
		{
			"bufferView":5,
			"componentType":5126,
			"count":13,
			"type":"MAT4"
		},
		{
			"bufferView":6,
			"componentType":5126,
			"count":96,
			"max":[
				0.5899999737739563,
				0.5549999475479126,
				0.07999999821186066
			],
			"min":[
				0.18999998271465302,
				0.21000000834465027,
				-0.03999999910593033
			],
			"type":"VEC3"
		},
		{
			"bufferView":7,
			"componentType":5126,
			"count":96,
			"type":"VEC3"
		},
		{
			"bufferView":8,
			"componentType":5126,
			"count":96,
			"type":"VEC3"
		},
		{
			"bufferView":9,
			"componentType":5121,
			"count":96,
			"type":"VEC4"
		},
		{
			"bufferView":10,
			"componentType":5126,
			"count":96,
			"type":"VEC4"
		},
		{
			"bufferView":11,
			"componentType":5123,
			"count":144,
			"type":"SCALAR"
		},
		{
			"bufferView":12,
			"componentType":5126,
			"count":432,
			"max":[
				0.22624652087688446,
				1.1110000610351562,
				0.25
			],
			"min":[
				-0.22624652087688446,
				0.8449999690055847,
				-0.20749999582767487
			],
			"type":"VEC3"
		},
		{
			"bufferView":13,
			"componentType":5126,
			"count":432,
			"type":"VEC3"
		},
		{
			"bufferView":14,
			"componentType":5126,
			"count":432,
			"type":"VEC3"
		},
		{
			"bufferView":15,
			"componentType":5121,
			"count":432,
			"type":"VEC4"
		},
		{
			"bufferView":16,
			"componentType":5126,
			"count":432,
			"type":"VEC4"
		},
		{
			"bufferView":17,
			"componentType":5123,
			"count":720,
			"type":"SCALAR"
		},
		{
			"bufferView":18,
			"componentType":5126,
			"count":72,
			"max":[
				0.4667864143848419,
				0.7749999761581421,
				0.1470191478729248
			],
			"min":[
				0.2532136142253876,
				0.4699999988079071,
				0.05298086255788803
			],
			"type":"VEC3"
		},
		{
			"bufferView":19,
			"componentType":5126,
			"count":72,
			"type":"VEC3"
		},
		{
			"bufferView":20,
			"componentType":5126,
			"count":72,
			"type":"VEC3"
		},
		{
			"bufferView":21,
			"componentType":5121,
			"count":72,
			"type":"VEC4"
		},
		{
			"bufferView":22,
			"componentType":5126,
			"count":72,
			"type":"VEC4"
		},
		{
			"bufferView":23,
			"componentType":5123,
			"count":108,
			"type":"SCALAR"
		},
		{
			"bufferView":24,
			"componentType":5126,
			"count":48,
			"max":[
				0.12250000238418579,
				1.0149999856948853,
				0.18700000643730164
			],
			"min":[
				0.07750000059604645,
				0.9850000143051147,
				0.1730000078678131
			],
			"type":"VEC3"
		},
		{
			"bufferView":25,
			"componentType":5126,
			"count":48,
			"type":"VEC3"
		},
		{
			"bufferView":26,
			"componentType":5126,
			"count":48,
			"type":"VEC3"
		},
		{
			"bufferView":27,
			"componentType":5121,
			"count":48,
			"type":"VEC4"
		},
		{
			"bufferView":28,
			"componentType":5126,
			"count":48,
			"type":"VEC4"
		},
		{
			"bufferView":29,
			"componentType":5123,
			"count":72,
			"type":"SCALAR"
		},
		{
			"bufferView":30,
			"componentType":5126,
			"count":145,
			"max":[
				0.4000000059604645,
				1.8329999446868896,
				0.4480000138282776
			],
			"min":[
				-0.4000000059604645,
				1.5099999904632568,
				-0.4480000138282776
			],
			"type":"VEC3"
		},
		{
			"bufferView":31,
			"componentType":5126,
			"count":145,
			"type":"VEC3"
		},
		{
			"bufferView":32,
			"componentType":5126,
			"count":145,
			"type":"VEC3"
		},
		{
			"bufferView":33,
			"componentType":5121,
			"count":145,
			"type":"VEC4"
		},
		{
			"bufferView":34,
			"componentType":5126,
			"count":145,
			"type":"VEC4"
		},
		{
			"bufferView":35,
			"componentType":5123,
			"count":510,
			"type":"SCALAR"
		},
		{
			"bufferView":36,
			"componentType":5126,
			"count":225,
			"max":[
				0.4142964482307434,
				1.159999966621399,
				0.16281276941299438
			],
			"min":[
				-0.4142964482307434,
				0.6200000047683716,
				-0.18799999356269836
			],
			"type":"VEC3"
		},
		{
			"bufferView":37,
			"componentType":5126,
			"count":225,
			"type":"VEC3"
		},
		{
			"bufferView":38,
			"componentType":5121,
			"count":225,
			"type":"VEC4"
		},
		{
			"bufferView":39,
			"componentType":5126,
			"count":225,
			"type":"VEC4"
		},
		{
			"bufferView":40,
			"componentType":5123,
			"count":588,
			"type":"SCALAR"
		},
		{
			"bufferView":41,
			"componentType":5126,
			"count":132,
			"max":[
				-0.3360000252723694,
				0.6089999675750732,
				0.17000000178813934
			],
			"min":[
				-0.3840000033378601,
				0.5609999895095825,
				-0.030000001192092896
			],
			"type":"VEC3"
		},
		{
			"bufferView":42,
			"componentType":5126,
			"count":132,
			"type":"VEC3"
		},
		{
			"bufferView":43,
			"componentType":5126,
			"count":132,
			"type":"VEC3"
		},
		{
			"bufferView":44,
			"componentType":5121,
			"count":132,
			"type":"VEC4"
		},
		{
			"bufferView":45,
			"componentType":5126,
			"count":132,
			"type":"VEC4"
		},
		{
			"bufferView":46,
			"componentType":5123,
			"count":228,
			"type":"SCALAR"
		},
		{
			"bufferView":47,
			"componentType":5126,
			"count":48,
			"max":[
				0.027499999850988388,
				1.0950000286102295,
				0.19815494120121002
			],
			"min":[
				-0.027499999850988388,
				0.8197447657585144,
				0.16784505546092987
			],
			"type":"VEC3"
		},
		{
			"bufferView":48,
			"componentType":5126,
			"count":48,
			"type":"VEC3"
		},
		{
			"bufferView":49,
			"componentType":5126,
			"count":48,
			"type":"VEC3"
		},
		{
			"bufferView":50,
			"componentType":5121,
			"count":48,
			"type":"VEC4"
		},
		{
			"bufferView":51,
			"componentType":5126,
			"count":48,
			"type":"VEC4"
		},
		{
			"bufferView":52,
			"componentType":5123,
			"count":72,
			"type":"SCALAR"
		},
		{
			"bufferView":53,
			"componentType":5126,
			"count":124,
			"max":[
				0.2199999988079071,
				0.699999988079071,
				0.17000000178813934
			],
			"min":[
				-0.25999999046325684,
				0.4400000274181366,
				-0.17000000178813934
			],
			"type":"VEC3"
		},
		{
			"bufferView":54,
			"componentType":5126,
			"count":124,
			"type":"VEC3"
		},
		{
			"bufferView":55,
			"componentType":5126,
			"count":124,
			"type":"VEC3"
		},
		{
			"bufferView":56,
			"componentType":5121,
			"count":124,
			"type":"VEC4"
		},
		{
			"bufferView":57,
			"componentType":5126,
			"count":124,
			"type":"VEC4"
		},
		{
			"bufferView":58,
			"componentType":5123,
			"count":216,
			"type":"SCALAR"
		},
		{
			"bufferView":59,
			"componentType":5126,
			"count":111,
			"max":[
				0.25699999928474426,
				1.0800000429153442,
				0.1940000057220459
			],
			"min":[
				-0.25699999928474426,
				0.699999988079071,
				-0.1940000057220459
			],
			"type":"VEC3"
		},
		{
			"bufferView":60,
			"componentType":5126,
			"count":111,
			"type":"VEC3"
		},
		{
			"bufferView":61,
			"componentType":5126,
			"count":111,
			"type":"VEC3"
		},
		{
			"bufferView":62,
			"componentType":5121,
			"count":111,
			"type":"VEC4"
		},
		{
			"bufferView":63,
			"componentType":5126,
			"count":111,
			"type":"VEC4"
		},
		{
			"bufferView":64,
			"componentType":5123,
			"count":348,
			"type":"SCALAR"
		},
		{
			"bufferView":65,
			"componentType":5126,
			"count":500,
			"max":[
				0.41806894540786743,
				1.7350000143051147,
				0.3399999737739563
			],
			"min":[
				-0.41806894540786743,
				0.5167999863624573,
				-0.28657907247543335
			],
			"type":"VEC3"
		},
		{
			"bufferView":66,
			"componentType":5126,
			"count":500,
			"type":"VEC3"
		},
		{
			"bufferView":67,
			"componentType":5121,
			"count":500,
			"type":"VEC4"
		},
		{
			"bufferView":68,
			"componentType":5126,
			"count":500,
			"type":"VEC4"
		},
		{
			"bufferView":69,
			"componentType":5123,
			"count":1464,
			"type":"SCALAR"
		},
		{
			"bufferView":70,
			"componentType":5126,
			"count":286,
			"max":[
				0.41147738695144653,
				1.1299999952316284,
				0.17000000178813934
			],
			"min":[
				-0.41147738695144653,
				0.6213833093643188,
				-0.17000000178813934
			],
			"type":"VEC3"
		},
		{
			"bufferView":71,
			"componentType":5126,
			"count":286,
			"type":"VEC3"
		},
		{
			"bufferView":72,
			"componentType":5121,
			"count":286,
			"type":"VEC4"
		},
		{
			"bufferView":73,
			"componentType":5126,
			"count":286,
			"type":"VEC4"
		},
		{
			"bufferView":74,
			"componentType":5123,
			"count":804,
			"type":"SCALAR"
		},
		{
			"bufferView":75,
			"componentType":5126,
			"count":258,
			"max":[
				0.19499999284744263,
				0.6899999976158142,
				0.15000000596046448
			],
			"min":[
				-0.19499999284744263,
				0.09729401767253876,
				-0.15000000596046448
			],
			"type":"VEC3"
		},
		{
			"bufferView":76,
			"componentType":5126,
			"count":258,
			"type":"VEC3"
		},
		{
			"bufferView":77,
			"componentType":5121,
			"count":258,
			"type":"VEC4"
		},
		{
			"bufferView":78,
			"componentType":5126,
			"count":258,
			"type":"VEC4"
		},
		{
			"bufferView":79,
			"componentType":5123,
			"count":660,
			"type":"SCALAR"
		},
		{
			"bufferView":80,
			"componentType":5126,
			"count":132,
			"max":[
				0.18083980679512024,
				0.12000000476837158,
				0.17314791679382324
			],
			"min":[
				-0.18083980679512024,
				-3.725290298461914e-09,
				-0.09314791113138199
			],
			"type":"VEC3"
		},
		{
			"bufferView":81,
			"componentType":5126,
			"count":132,
			"type":"VEC3"
		},
		{
			"bufferView":82,
			"componentType":5121,
			"count":132,
			"type":"VEC4"
		},
		{
			"bufferView":83,
			"componentType":5126,
			"count":132,
			"type":"VEC4"
		},
		{
			"bufferView":84,
			"componentType":5123,
			"count":384,
			"type":"SCALAR"
		},
		{
			"bufferView":85,
			"componentType":5126,
			"count":147,
			"max":[
				0.3449999988079071,
				1.9600000381469727,
				0.33635011315345764
			],
			"min":[
				-0.3449999988079071,
				1.4900000095367432,
				-0.33635011315345764
			],
			"type":"VEC3"
		},
		{
			"bufferView":86,
			"componentType":5126,
			"count":147,
			"type":"VEC3"
		},
		{
			"bufferView":87,
			"componentType":5126,
			"count":147,
			"type":"VEC3"
		},
		{
			"bufferView":88,
			"componentType":5121,
			"count":147,
			"type":"VEC4"
		},
		{
			"bufferView":89,
			"componentType":5126,
			"count":147,
			"type":"VEC4"
		},
		{
			"bufferView":90,
			"componentType":5123,
			"count":486,
			"type":"SCALAR"
		},
		{
			"bufferView":91,
			"componentType":5126,
			"count":72,
			"max":[
				0.08467771857976913,
				1.1156219244003296,
				0.18450000882148743
			],
			"min":[
				-0.08467771857976913,
				1.0443781614303589,
				0.1550000011920929
			],
			"type":"VEC3"
		},
		{
			"bufferView":92,
			"componentType":5126,
			"count":72,
			"type":"VEC3"
		},
		{
			"bufferView":93,
			"componentType":5126,
			"count":72,
			"type":"VEC3"
		},
		{
			"bufferView":94,
			"componentType":5121,
			"count":72,
			"type":"VEC4"
		},
		{
			"bufferView":95,
			"componentType":5126,
			"count":72,
			"type":"VEC4"
		},
		{
			"bufferView":96,
			"componentType":5123,
			"count":108,
			"type":"SCALAR"
		},
		{
			"bufferView":97,
			"componentType":5126,
			"count":143,
			"max":[
				0.312037855386734,
				1.8499999046325684,
				0.44076648354530334
			],
			"min":[
				-0.3120378851890564,
				1.4837043285369873,
				-0.320062518119812
			],
			"type":"VEC3"
		},
		{
			"bufferView":98,
			"componentType":5126,
			"count":143,
			"type":"VEC3"
		},
		{
			"bufferView":99,
			"componentType":5126,
			"count":143,
			"type":"VEC3"
		},
		{
			"bufferView":100,
			"componentType":5121,
			"count":143,
			"type":"VEC4"
		},
		{
			"bufferView":101,
			"componentType":5126,
			"count":143,
			"type":"VEC4"
		},
		{
			"bufferView":102,
			"componentType":5123,
			"count":438,
			"type":"SCALAR"
		},
		{
			"bufferView":103,
			"componentType":5126,
			"count":372,
			"max":[
				-0.19102886319160461,
				1.7130422592163086,
				0.10000000149011612
			],
			"min":[
				-0.3413318395614624,
				1.5469578504562378,
				0.004999998956918716
			],
			"type":"VEC3"
		},
		{
			"bufferView":104,
			"componentType":5126,
			"count":372,
			"type":"VEC3"
		},
		{
			"bufferView":105,
			"componentType":5126,
			"count":372,
			"type":"VEC3"
		},
		{
			"bufferView":106,
			"componentType":5121,
			"count":372,
			"type":"VEC4"
		},
		{
			"bufferView":107,
			"componentType":5126,
			"count":372,
			"type":"VEC4"
		},
		{
			"bufferView":108,
			"componentType":5123,
			"count":648,
			"type":"SCALAR"
		},
		{
			"bufferView":109,
			"componentType":5126,
			"count":216,
			"max":[
				0.17499999701976776,
				1.1627975702285767,
				0.18084979057312012
			],
			"min":[
				-0.17499999701976776,
				0.75,
				-0.14875000715255737
			],
			"type":"VEC3"
		},
		{
			"bufferView":110,
			"componentType":5126,
			"count":216,
			"type":"VEC3"
		},
		{
			"bufferView":111,
			"componentType":5126,
			"count":216,
			"type":"VEC3"
		},
		{
			"bufferView":112,
			"componentType":5121,
			"count":216,
			"type":"VEC4"
		},
		{
			"bufferView":113,
			"componentType":5126,
			"count":216,
			"type":"VEC4"
		},
		{
			"bufferView":114,
			"componentType":5123,
			"count":504,
			"type":"SCALAR"
		},
		{
			"bufferView":115,
			"componentType":5126,
			"count":124,
			"max":[
				0.16824781894683838,
				1.520924687385559,
				0.3370199501514435
			],
			"min":[
				-0.16824781894683838,
				1.4110621213912964,
				0.27185937762260437
			],
			"type":"VEC3"
		},
		{
			"bufferView":116,
			"componentType":5126,
			"count":124,
			"type":"VEC3"
		},
		{
			"bufferView":117,
			"componentType":5126,
			"count":124,
			"type":"VEC3"
		},
		{
			"bufferView":118,
			"componentType":5121,
			"count":124,
			"type":"VEC4"
		},
		{
			"bufferView":119,
			"componentType":5126,
			"count":124,
			"type":"VEC4"
		},
		{
			"bufferView":120,
			"componentType":5123,
			"count":252,
			"type":"SCALAR"
		},
		{
			"bufferView":121,
			"componentType":5126,
			"count":216,
			"max":[
				0.14166665077209473,
				1.521388292312622,
				0.3055894076824188
			],
			"min":[
				-0.14166665077209473,
				1.3759727478027344,
				0.2524220645427704
			],
			"type":"VEC3"
		},
		{
			"bufferView":122,
			"componentType":5126,
			"count":216,
			"type":"VEC3"
		},
		{
			"bufferView":123,
			"componentType":5126,
			"count":216,
			"type":"VEC3"
		},
		{
			"bufferView":124,
			"componentType":5121,
			"count":216,
			"type":"VEC4"
		},
		{
			"bufferView":125,
			"componentType":5126,
			"count":216,
			"type":"VEC4"
		},
		{
			"bufferView":126,
			"componentType":5123,
			"count":324,
			"type":"SCALAR"
		},
		{
			"bufferView":127,
			"componentType":5126,
			"count":660,
			"max":[
				0.19630403816699982,
				1.5535911321640015,
				0.30863499641418457
			],
			"min":[
				-0.19630403816699982,
				1.3417068719863892,
				0.22147545218467712
			],
			"type":"VEC3"
		},
		{
			"bufferView":128,
			"componentType":5126,
			"count":660,
			"type":"VEC3"
		},
		{
			"bufferView":129,
			"componentType":5126,
			"count":660,
			"type":"VEC3"
		},
		{
			"bufferView":130,
			"componentType":5121,
			"count":660,
			"type":"VEC4"
		},
		{
			"bufferView":131,
			"componentType":5126,
			"count":660,
			"type":"VEC4"
		},
		{
			"bufferView":132,
			"componentType":5123,
			"count":864,
			"type":"SCALAR"
		},
		{
			"bufferView":133,
			"componentType":5126,
			"count":624,
			"max":[
				0.19630403816699982,
				1.534393548965454,
				0.3062228560447693
			],
			"min":[
				-0.19630403816699982,
				1.3735657930374146,
				0.22147545218467712
			],
			"type":"VEC3"
		},
		{
			"bufferView":134,
			"componentType":5126,
			"count":624,
			"type":"VEC3"
		},
		{
			"bufferView":135,
			"componentType":5126,
			"count":624,
			"type":"VEC3"
		},
		{
			"bufferView":136,
			"componentType":5121,
			"count":624,
			"type":"VEC4"
		},
		{
			"bufferView":137,
			"componentType":5126,
			"count":624,
			"type":"VEC4"
		},
		{
			"bufferView":138,
			"componentType":5123,
			"count":828,
			"type":"SCALAR"
		},
		{
			"bufferView":139,
			"componentType":5126,
			"count":111,
			"max":[
				0.3024367094039917,
				1.8700000047683716,
				0.2577980160713196
			],
			"min":[
				-0.3024367094039917,
				1.4253008365631104,
				-0.3252144157886505
			],
			"type":"VEC3"
		},
		{
			"bufferView":140,
			"componentType":5126,
			"count":111,
			"type":"VEC3"
		},
		{
			"bufferView":141,
			"componentType":5121,
			"count":111,
			"type":"VEC4"
		},
		{
			"bufferView":142,
			"componentType":5126,
			"count":111,
			"type":"VEC4"
		},
		{
			"bufferView":143,
			"componentType":5123,
			"count":546,
			"type":"SCALAR"
		},
		{
			"bufferView":144,
			"componentType":5126,
			"count":113,
			"max":[
				0.357057124376297,
				1.8670119047164917,
				0.2722008526325226
			],
			"min":[
				-0.3470502495765686,
				1.3231691122055054,
				-0.3738451600074768
			],
			"type":"VEC3"
		},
		{
			"bufferView":145,
			"componentType":5126,
			"count":113,
			"type":"VEC3"
		},
		{
			"bufferView":146,
			"componentType":5121,
			"count":113,
			"type":"VEC4"
		},
		{
			"bufferView":147,
			"componentType":5126,
			"count":113,
			"type":"VEC4"
		},
		{
			"bufferView":148,
			"componentType":5123,
			"count":525,
			"type":"SCALAR"
		},
		{
			"bufferView":149,
			"componentType":5126,
			"count":136,
			"max":[
				0.312037855386734,
				1.8287501335144043,
				0.2621281147003174
			],
			"min":[
				-0.3120378851890564,
				0.9777100086212158,
				-0.3500625193119049
			],
			"type":"VEC3"
		},
		{
			"bufferView":150,
			"componentType":5126,
			"count":136,
			"type":"VEC3"
		},
		{
			"bufferView":151,
			"componentType":5121,
			"count":136,
			"type":"VEC4"
		},
		{
			"bufferView":152,
			"componentType":5126,
			"count":136,
			"type":"VEC4"
		},
		{
			"bufferView":153,
			"componentType":5123,
			"count":672,
			"type":"SCALAR"
		},
		{
			"bufferView":154,
			"componentType":5126,
			"count":61,
			"max":[
				0.30723729729652405,
				1.7899999618530273,
				0.2621281147003174
			],
			"min":[
				-0.30723729729652405,
				1.4144326448440552,
				-0.3301384449005127
			],
			"type":"VEC3"
		},
		{
			"bufferView":155,
			"componentType":5126,
			"count":61,
			"type":"VEC3"
		},
		{
			"bufferView":156,
			"componentType":5121,
			"count":61,
			"type":"VEC4"
		},
		{
			"bufferView":157,
			"componentType":5126,
			"count":61,
			"type":"VEC4"
		},
		{
			"bufferView":158,
			"componentType":5123,
			"count":306,
			"type":"SCALAR"
		},
		{
			"bufferView":159,
			"componentType":5126,
			"count":25,
			"max":[
				1
			],
			"min":[
				0
			],
			"type":"SCALAR"
		},
		{
			"bufferView":160,
			"componentType":5126,
			"count":25,
			"type":"VEC3"
		},
		{
			"bufferView":161,
			"componentType":5126,
			"count":2,
			"max":[
				1
			],
			"min":[
				0
			],
			"type":"SCALAR"
		},
		{
			"bufferView":162,
			"componentType":5126,
			"count":2,
			"type":"VEC4"
		},
		{
			"bufferView":163,
			"componentType":5126,
			"count":2,
			"type":"VEC3"
		},
		{
			"bufferView":164,
			"componentType":5126,
			"count":2,
			"type":"VEC3"
		},
		{
			"bufferView":165,
			"componentType":5126,
			"count":25,
			"type":"VEC4"
		},
		{
			"bufferView":166,
			"componentType":5126,
			"count":2,
			"type":"VEC3"
		},
		{
			"bufferView":167,
			"componentType":5126,
			"count":2,
			"type":"VEC3"
		},
		{
			"bufferView":168,
			"componentType":5126,
			"count":25,
			"type":"VEC4"
		},
		{
			"bufferView":169,
			"componentType":5126,
			"count":2,
			"type":"VEC3"
		},
		{
			"bufferView":170,
			"componentType":5126,
			"count":2,
			"type":"VEC3"
		},
		{
			"bufferView":171,
			"componentType":5126,
			"count":2,
			"type":"VEC3"
		},
		{
			"bufferView":172,
			"componentType":5126,
			"count":2,
			"type":"VEC3"
		},
		{
			"bufferView":173,
			"componentType":5126,
			"count":25,
			"type":"VEC4"
		},
		{
			"bufferView":174,
			"componentType":5126,
			"count":2,
			"type":"VEC3"
		},
		{
			"bufferView":175,
			"componentType":5126,
			"count":2,
			"type":"VEC3"
		},
		{
			"bufferView":176,
			"componentType":5126,
			"count":2,
			"type":"VEC4"
		},
		{
			"bufferView":177,
			"componentType":5126,
			"count":2,
			"type":"VEC3"
		},
		{
			"bufferView":178,
			"componentType":5126,
			"count":2,
			"type":"VEC3"
		},
		{
			"bufferView":179,
			"componentType":5126,
			"count":2,
			"type":"VEC4"
		},
		{
			"bufferView":180,
			"componentType":5126,
			"count":2,
			"type":"VEC3"
		},
		{
			"bufferView":181,
			"componentType":5126,
			"count":2,
			"type":"VEC3"
		},
		{
			"bufferView":182,
			"componentType":5126,
			"count":25,
			"type":"VEC4"
		},
		{
			"bufferView":183,
			"componentType":5126,
			"count":2,
			"type":"VEC3"
		},
		{
			"bufferView":184,
			"componentType":5126,
			"count":2,
			"type":"VEC3"
		},
		{
			"bufferView":185,
			"componentType":5126,
			"count":2,
			"type":"VEC4"
		},
		{
			"bufferView":186,
			"componentType":5126,
			"count":2,
			"type":"VEC3"
		},
		{
			"bufferView":187,
			"componentType":5126,
			"count":2,
			"type":"VEC3"
		},
		{
			"bufferView":188,
			"componentType":5126,
			"count":2,
			"type":"VEC4"
		},
		{
			"bufferView":189,
			"componentType":5126,
			"count":2,
			"type":"VEC3"
		},
		{
			"bufferView":190,
			"componentType":5126,
			"count":2,
			"type":"VEC3"
		},
		{
			"bufferView":191,
			"componentType":5126,
			"count":49,
			"max":[
				2
			],
			"min":[
				0
			],
			"type":"SCALAR"
		},
		{
			"bufferView":192,
			"componentType":5126,
			"count":49,
			"type":"VEC3"
		},
		{
			"bufferView":193,
			"componentType":5126,
			"count":2,
			"max":[
				2
			],
			"min":[
				0
			],
			"type":"SCALAR"
		},
		{
			"bufferView":194,
			"componentType":5126,
			"count":2,
			"type":"VEC4"
		},
		{
			"bufferView":195,
			"componentType":5126,
			"count":2,
			"type":"VEC3"
		},
		{
			"bufferView":196,
			"componentType":5126,
			"count":2,
			"type":"VEC4"
		},
		{
			"bufferView":197,
			"componentType":5126,
			"count":49,
			"type":"VEC4"
		},
		{
			"bufferView":198,
			"componentType":5126,
			"count":2,
			"type":"VEC3"
		},
		{
			"bufferView":199,
			"componentType":5126,
			"count":49,
			"type":"VEC4"
		},
		{
			"bufferView":200,
			"componentType":5126,
			"count":2,
			"type":"VEC3"
		},
		{
			"bufferView":201,
			"componentType":5126,
			"count":2,
			"type":"VEC3"
		},
		{
			"bufferView":202,
			"componentType":5126,
			"count":2,
			"type":"VEC4"
		},
		{
			"bufferView":203,
			"componentType":5126,
			"count":2,
			"type":"VEC3"
		},
		{
			"bufferView":204,
			"componentType":5126,
			"count":2,
			"type":"VEC3"
		},
		{
			"bufferView":205,
			"componentType":5126,
			"count":2,
			"type":"VEC4"
		},
		{
			"bufferView":206,
			"componentType":5126,
			"count":2,
			"type":"VEC3"
		},
		{
			"bufferView":207,
			"componentType":5126,
			"count":49,
			"type":"VEC4"
		},
		{
			"bufferView":208,
			"componentType":5126,
			"count":2,
			"type":"VEC3"
		},
		{
			"bufferView":209,
			"componentType":5126,
			"count":2,
			"type":"VEC4"
		},
		{
			"bufferView":210,
			"componentType":5126,
			"count":2,
			"type":"VEC3"
		},
		{
			"bufferView":211,
			"componentType":5126,
			"count":2,
			"type":"VEC4"
		},
		{
			"bufferView":212,
			"componentType":5126,
			"count":49,
			"type":"VEC4"
		},
		{
			"bufferView":213,
			"componentType":5126,
			"count":21,
			"max":[
				0.8333333333333334
			],
			"min":[
				0
			],
			"type":"SCALAR"
		},
		{
			"bufferView":214,
			"componentType":5126,
			"count":21,
			"type":"VEC3"
		},
		{
			"bufferView":215,
			"componentType":5126,
			"count":2,
			"max":[
				0.8333333333333334
			],
			"min":[
				0
			],
			"type":"SCALAR"
		},
		{
			"bufferView":216,
			"componentType":5126,
			"count":21,
			"type":"VEC4"
		},
		{
			"bufferView":217,
			"componentType":5126,
			"count":2,
			"type":"VEC3"
		},
		{
			"bufferView":218,
			"componentType":5126,
			"count":2,
			"type":"VEC3"
		},
		{
			"bufferView":219,
			"componentType":5126,
			"count":21,
			"type":"VEC4"
		},
		{
			"bufferView":220,
			"componentType":5126,
			"count":21,
			"type":"VEC4"
		},
		{
			"bufferView":221,
			"componentType":5126,
			"count":2,
			"type":"VEC3"
		},
		{
			"bufferView":222,
			"componentType":5126,
			"count":2,
			"type":"VEC3"
		},
		{
			"bufferView":223,
			"componentType":5126,
			"count":21,
			"type":"VEC4"
		},
		{
			"bufferView":224,
			"componentType":5126,
			"count":21,
			"type":"VEC4"
		},
		{
			"bufferView":225,
			"componentType":5126,
			"count":2,
			"type":"VEC3"
		},
		{
			"bufferView":226,
			"componentType":5126,
			"count":21,
			"type":"VEC4"
		},
		{
			"bufferView":227,
			"componentType":5126,
			"count":2,
			"type":"VEC3"
		},
		{
			"bufferView":228,
			"componentType":5126,
			"count":2,
			"type":"VEC3"
		},
		{
			"bufferView":229,
			"componentType":5126,
			"count":2,
			"type":"VEC4"
		},
		{
			"bufferView":230,
			"componentType":5126,
			"count":2,
			"type":"VEC3"
		},
		{
			"bufferView":231,
			"componentType":5126,
			"count":2,
			"type":"VEC3"
		},
		{
			"bufferView":232,
			"componentType":5126,
			"count":2,
			"type":"VEC4"
		},
		{
			"bufferView":233,
			"componentType":5126,
			"count":2,
			"type":"VEC3"
		},
		{
			"bufferView":234,
			"componentType":5126,
			"count":2,
			"type":"VEC3"
		},
		{
			"bufferView":235,
			"componentType":5126,
			"count":21,
			"type":"VEC4"
		},
		{
			"bufferView":236,
			"componentType":5126,
			"count":2,
			"type":"VEC3"
		},
		{
			"bufferView":237,
			"componentType":5126,
			"count":2,
			"type":"VEC3"
		},
		{
			"bufferView":238,
			"componentType":5126,
			"count":2,
			"type":"VEC4"
		},
		{
			"bufferView":239,
			"componentType":5126,
			"count":2,
			"type":"VEC3"
		},
		{
			"bufferView":240,
			"componentType":5126,
			"count":2,
			"type":"VEC3"
		},
		{
			"bufferView":241,
			"componentType":5126,
			"count":2,
			"type":"VEC4"
		},
		{
			"bufferView":242,
			"componentType":5126,
			"count":2,
			"type":"VEC3"
		},
		{
			"bufferView":243,
			"componentType":5126,
			"count":2,
			"max":[
				1.5
			],
			"min":[
				0
			],
			"type":"SCALAR"
		},
		{
			"bufferView":244,
			"componentType":5126,
			"count":2,
			"type":"VEC3"
		},
		{
			"bufferView":245,
			"componentType":5126,
			"count":2,
			"type":"VEC4"
		},
		{
			"bufferView":246,
			"componentType":5126,
			"count":2,
			"type":"VEC4"
		},
		{
			"bufferView":247,
			"componentType":5126,
			"count":2,
			"type":"VEC3"
		},
		{
			"bufferView":248,
			"componentType":5126,
			"count":2,
			"type":"VEC3"
		},
		{
			"bufferView":249,
			"componentType":5126,
			"count":37,
			"max":[
				1.5
			],
			"min":[
				0
			],
			"type":"SCALAR"
		},
		{
			"bufferView":250,
			"componentType":5126,
			"count":37,
			"type":"VEC4"
		},
		{
			"bufferView":251,
			"componentType":5126,
			"count":2,
			"type":"VEC3"
		},
		{
			"bufferView":252,
			"componentType":5126,
			"count":2,
			"type":"VEC3"
		},
		{
			"bufferView":253,
			"componentType":5126,
			"count":2,
			"type":"VEC4"
		},
		{
			"bufferView":254,
			"componentType":5126,
			"count":2,
			"type":"VEC3"
		},
		{
			"bufferView":255,
			"componentType":5126,
			"count":2,
			"type":"VEC4"
		},
		{
			"bufferView":256,
			"componentType":5126,
			"count":2,
			"type":"VEC3"
		}
	],
	"bufferViews":[
		{
			"buffer":0,
			"byteLength":2928,
			"byteOffset":0,
			"target":34962
		},
		{
			"buffer":0,
			"byteLength":2928,
			"byteOffset":2928,
			"target":34962
		},
		{
			"buffer":0,
			"byteLength":976,
			"byteOffset":5856,
			"target":34962
		},
		{
			"buffer":0,
			"byteLength":3904,
			"byteOffset":6832,
			"target":34962
		},
		{
			"buffer":0,
			"byteLength":1248,
			"byteOffset":10736,
			"target":34963
		},
		{
			"buffer":0,
			"byteLength":832,
			"byteOffset":11984
		},
		{
			"buffer":0,
			"byteLength":1152,
			"byteOffset":12816,
			"target":34962
		},
		{
			"buffer":0,
			"byteLength":1152,
			"byteOffset":13968,
			"target":34962
		},
		{
			"buffer":0,
			"byteLength":1152,
			"byteOffset":15120,
			"target":34962
		},
		{
			"buffer":0,
			"byteLength":384,
			"byteOffset":16272,
			"target":34962
		},
		{
			"buffer":0,
			"byteLength":1536,
			"byteOffset":16656,
			"target":34962
		},
		{
			"buffer":0,
			"byteLength":288,
			"byteOffset":18192,
			"target":34963
		},
		{
			"buffer":0,
			"byteLength":5184,
			"byteOffset":18480,
			"target":34962
		},
		{
			"buffer":0,
			"byteLength":5184,
			"byteOffset":23664,
			"target":34962
		},
		{
			"buffer":0,
			"byteLength":5184,
			"byteOffset":28848,
			"target":34962
		},
		{
			"buffer":0,
			"byteLength":1728,
			"byteOffset":34032,
			"target":34962
		},
		{
			"buffer":0,
			"byteLength":6912,
			"byteOffset":35760,
			"target":34962
		},
		{
			"buffer":0,
			"byteLength":1440,
			"byteOffset":42672,
			"target":34963
		},
		{
			"buffer":0,
			"byteLength":864,
			"byteOffset":44112,
			"target":34962
		},
		{
			"buffer":0,
			"byteLength":864,
			"byteOffset":44976,
			"target":34962
		},
		{
			"buffer":0,
			"byteLength":864,
			"byteOffset":45840,
			"target":34962
		},
		{
			"buffer":0,
			"byteLength":288,
			"byteOffset":46704,
			"target":34962
		},
		{
			"buffer":0,
			"byteLength":1152,
			"byteOffset":46992,
			"target":34962
		},
		{
			"buffer":0,
			"byteLength":216,
			"byteOffset":48144,
			"target":34963
		},
		{
			"buffer":0,
			"byteLength":576,
			"byteOffset":48360,
			"target":34962
		},
		{
			"buffer":0,
			"byteLength":576,
			"byteOffset":48936,
			"target":34962
		},
		{
			"buffer":0,
			"byteLength":576,
			"byteOffset":49512,
			"target":34962
		},
		{
			"buffer":0,
			"byteLength":192,
			"byteOffset":50088,
			"target":34962
		},
		{
			"buffer":0,
			"byteLength":768,
			"byteOffset":50280,
			"target":34962
		},
		{
			"buffer":0,
			"byteLength":144,
			"byteOffset":51048,
			"target":34963
		},
		{
			"buffer":0,
			"byteLength":1740,
			"byteOffset":51192,
			"target":34962
		},
		{
			"buffer":0,
			"byteLength":1740,
			"byteOffset":52932,
			"target":34962
		},
		{
			"buffer":0,
			"byteLength":1740,
			"byteOffset":54672,
			"target":34962
		},
		{
			"buffer":0,
			"byteLength":580,
			"byteOffset":56412,
			"target":34962
		},
		{
			"buffer":0,
			"byteLength":2320,
			"byteOffset":56992,
			"target":34962
		},
		{
			"buffer":0,
			"byteLength":1020,
			"byteOffset":59312,
			"target":34963
		},
		{
			"buffer":0,
			"byteLength":2700,
			"byteOffset":60332,
			"target":34962
		},
		{
			"buffer":0,
			"byteLength":2700,
			"byteOffset":63032,
			"target":34962
		},
		{
			"buffer":0,
			"byteLength":900,
			"byteOffset":65732,
			"target":34962
		},
		{
			"buffer":0,
			"byteLength":3600,
			"byteOffset":66632,
			"target":34962
		},
		{
			"buffer":0,
			"byteLength":1176,
			"byteOffset":70232,
			"target":34963
		},
		{
			"buffer":0,
			"byteLength":1584,
			"byteOffset":71408,
			"target":34962
		},
		{
			"buffer":0,
			"byteLength":1584,
			"byteOffset":72992,
			"target":34962
		},
		{
			"buffer":0,
			"byteLength":1584,
			"byteOffset":74576,
			"target":34962
		},
		{
			"buffer":0,
			"byteLength":528,
			"byteOffset":76160,
			"target":34962
		},
		{
			"buffer":0,
			"byteLength":2112,
			"byteOffset":76688,
			"target":34962
		},
		{
			"buffer":0,
			"byteLength":456,
			"byteOffset":78800,
			"target":34963
		},
		{
			"buffer":0,
			"byteLength":576,
			"byteOffset":79256,
			"target":34962
		},
		{
			"buffer":0,
			"byteLength":576,
			"byteOffset":79832,
			"target":34962
		},
		{
			"buffer":0,
			"byteLength":576,
			"byteOffset":80408,
			"target":34962
		},
		{
			"buffer":0,
			"byteLength":192,
			"byteOffset":80984,
			"target":34962
		},
		{
			"buffer":0,
			"byteLength":768,
			"byteOffset":81176,
			"target":34962
		},
		{
			"buffer":0,
			"byteLength":144,
			"byteOffset":81944,
			"target":34963
		},
		{
			"buffer":0,
			"byteLength":1488,
			"byteOffset":82088,
			"target":34962
		},
		{
			"buffer":0,
			"byteLength":1488,
			"byteOffset":83576,
			"target":34962
		},
		{
			"buffer":0,
			"byteLength":1488,
			"byteOffset":85064,
			"target":34962
		},
		{
			"buffer":0,
			"byteLength":496,
			"byteOffset":86552,
			"target":34962
		},
		{
			"buffer":0,
			"byteLength":1984,
			"byteOffset":87048,
			"target":34962
		},
		{
			"buffer":0,
			"byteLength":432,
			"byteOffset":89032,
			"target":34963
		},
		{
			"buffer":0,
			"byteLength":1332,
			"byteOffset":89464,
			"target":34962
		},
		{
			"buffer":0,
			"byteLength":1332,
			"byteOffset":90796,
			"target":34962
		},
		{
			"buffer":0,
			"byteLength":1332,
			"byteOffset":92128,
			"target":34962
		},
		{
			"buffer":0,
			"byteLength":444,
			"byteOffset":93460,
			"target":34962
		},
		{
			"buffer":0,
			"byteLength":1776,
			"byteOffset":93904,
			"target":34962
		},
		{
			"buffer":0,
			"byteLength":696,
			"byteOffset":95680,
			"target":34963
		},
		{
			"buffer":0,
			"byteLength":6000,
			"byteOffset":96376,
			"target":34962
		},
		{
			"buffer":0,
			"byteLength":6000,
			"byteOffset":102376,
			"target":34962
		},
		{
			"buffer":0,
			"byteLength":2000,
			"byteOffset":108376,
			"target":34962
		},
		{
			"buffer":0,
			"byteLength":8000,
			"byteOffset":110376,
			"target":34962
		},
		{
			"buffer":0,
			"byteLength":2928,
			"byteOffset":118376,
			"target":34963
		},
		{
			"buffer":0,
			"byteLength":3432,
			"byteOffset":121304,
			"target":34962
		},
		{
			"buffer":0,
			"byteLength":3432,
			"byteOffset":124736,
			"target":34962
		},
		{
			"buffer":0,
			"byteLength":1144,
			"byteOffset":128168,
			"target":34962
		},
		{
			"buffer":0,
			"byteLength":4576,
			"byteOffset":129312,
			"target":34962
		},
		{
			"buffer":0,
			"byteLength":1608,
			"byteOffset":133888,
			"target":34963
		},
		{
			"buffer":0,
			"byteLength":3096,
			"byteOffset":135496,
			"target":34962
		},
		{
			"buffer":0,
			"byteLength":3096,
			"byteOffset":138592,
			"target":34962
		},
		{
			"buffer":0,
			"byteLength":1032,
			"byteOffset":141688,
			"target":34962
		},
		{
			"buffer":0,
			"byteLength":4128,
			"byteOffset":142720,
			"target":34962
		},
		{
			"buffer":0,
			"byteLength":1320,
			"byteOffset":146848,
			"target":34963
		},
		{
			"buffer":0,
			"byteLength":1584,
			"byteOffset":148168,
			"target":34962
		},
		{
			"buffer":0,
			"byteLength":1584,
			"byteOffset":149752,
			"target":34962
		},
		{
			"buffer":0,
			"byteLength":528,
			"byteOffset":151336,
			"target":34962
		},
		{
			"buffer":0,
			"byteLength":2112,
			"byteOffset":151864,
			"target":34962
		},
		{
			"buffer":0,
			"byteLength":768,
			"byteOffset":153976,
			"target":34963
		},
		{
			"buffer":0,
			"byteLength":1764,
			"byteOffset":154744,
			"target":34962
		},
		{
			"buffer":0,
			"byteLength":1764,
			"byteOffset":156508,
			"target":34962
		},
		{
			"buffer":0,
			"byteLength":1764,
			"byteOffset":158272,
			"target":34962
		},
		{
			"buffer":0,
			"byteLength":588,
			"byteOffset":160036,
			"target":34962
		},
		{
			"buffer":0,
			"byteLength":2352,
			"byteOffset":160624,
			"target":34962
		},
		{
			"buffer":0,
			"byteLength":972,
			"byteOffset":162976,
			"target":34963
		},
		{
			"buffer":0,
			"byteLength":864,
			"byteOffset":163948,
			"target":34962
		},
		{
			"buffer":0,
			"byteLength":864,
			"byteOffset":164812,
			"target":34962
		},
		{
			"buffer":0,
			"byteLength":864,
			"byteOffset":165676,
			"target":34962
		},
		{
			"buffer":0,
			"byteLength":288,
			"byteOffset":166540,
			"target":34962
		},
		{
			"buffer":0,
			"byteLength":1152,
			"byteOffset":166828,
			"target":34962
		},
		{
			"buffer":0,
			"byteLength":216,
			"byteOffset":167980,
			"target":34963
		},
		{
			"buffer":0,
			"byteLength":1716,
			"byteOffset":168196,
			"target":34962
		},
		{
			"buffer":0,
			"byteLength":1716,
			"byteOffset":169912,
			"target":34962
		},
		{
			"buffer":0,
			"byteLength":1716,
			"byteOffset":171628,
			"target":34962
		},
		{
			"buffer":0,
			"byteLength":572,
			"byteOffset":173344,
			"target":34962
		},
		{
			"buffer":0,
			"byteLength":2288,
			"byteOffset":173916,
			"target":34962
		},
		{
			"buffer":0,
			"byteLength":876,
			"byteOffset":176204,
			"target":34963
		},
		{
			"buffer":0,
			"byteLength":4464,
			"byteOffset":177080,
			"target":34962
		},
		{
			"buffer":0,
			"byteLength":4464,
			"byteOffset":181544,
			"target":34962
		},
		{
			"buffer":0,
			"byteLength":4464,
			"byteOffset":186008,
			"target":34962
		},
		{
			"buffer":0,
			"byteLength":1488,
			"byteOffset":190472,
			"target":34962
		},
		{
			"buffer":0,
			"byteLength":5952,
			"byteOffset":191960,
			"target":34962
		},
		{
			"buffer":0,
			"byteLength":1296,
			"byteOffset":197912,
			"target":34963
		},
		{
			"buffer":0,
			"byteLength":2592,
			"byteOffset":199208,
			"target":34962
		},
		{
			"buffer":0,
			"byteLength":2592,
			"byteOffset":201800,
			"target":34962
		},
		{
			"buffer":0,
			"byteLength":2592,
			"byteOffset":204392,
			"target":34962
		},
		{
			"buffer":0,
			"byteLength":864,
			"byteOffset":206984,
			"target":34962
		},
		{
			"buffer":0,
			"byteLength":3456,
			"byteOffset":207848,
			"target":34962
		},
		{
			"buffer":0,
			"byteLength":1008,
			"byteOffset":211304,
			"target":34963
		},
		{
			"buffer":0,
			"byteLength":1488,
			"byteOffset":212312,
			"target":34962
		},
		{
			"buffer":0,
			"byteLength":1488,
			"byteOffset":213800,
			"target":34962
		},
		{
			"buffer":0,
			"byteLength":1488,
			"byteOffset":215288,
			"target":34962
		},
		{
			"buffer":0,
			"byteLength":496,
			"byteOffset":216776,
			"target":34962
		},
		{
			"buffer":0,
			"byteLength":1984,
			"byteOffset":217272,
			"target":34962
		},
		{
			"buffer":0,
			"byteLength":504,
			"byteOffset":219256,
			"target":34963
		},
		{
			"buffer":0,
			"byteLength":2592,
			"byteOffset":219760,
			"target":34962
		},
		{
			"buffer":0,
			"byteLength":2592,
			"byteOffset":222352,
			"target":34962
		},
		{
			"buffer":0,
			"byteLength":2592,
			"byteOffset":224944,
			"target":34962
		},
		{
			"buffer":0,
			"byteLength":864,
			"byteOffset":227536,
			"target":34962
		},
		{
			"buffer":0,
			"byteLength":3456,
			"byteOffset":228400,
			"target":34962
		},
		{
			"buffer":0,
			"byteLength":648,
			"byteOffset":231856,
			"target":34963
		},
		{
			"buffer":0,
			"byteLength":7920,
			"byteOffset":232504,
			"target":34962
		},
		{
			"buffer":0,
			"byteLength":7920,
			"byteOffset":240424,
			"target":34962
		},
		{
			"buffer":0,
			"byteLength":7920,
			"byteOffset":248344,
			"target":34962
		},
		{
			"buffer":0,
			"byteLength":2640,
			"byteOffset":256264,
			"target":34962
		},
		{
			"buffer":0,
			"byteLength":10560,
			"byteOffset":258904,
			"target":34962
		},
		{
			"buffer":0,
			"byteLength":1728,
			"byteOffset":269464,
			"target":34963
		},
		{
			"buffer":0,
			"byteLength":7488,
			"byteOffset":271192,
			"target":34962
		},
		{
			"buffer":0,
			"byteLength":7488,
			"byteOffset":278680,
			"target":34962
		},
		{
			"buffer":0,
			"byteLength":7488,
			"byteOffset":286168,
			"target":34962
		},
		{
			"buffer":0,
			"byteLength":2496,
			"byteOffset":293656,
			"target":34962
		},
		{
			"buffer":0,
			"byteLength":9984,
			"byteOffset":296152,
			"target":34962
		},
		{
			"buffer":0,
			"byteLength":1656,
			"byteOffset":306136,
			"target":34963
		},
		{
			"buffer":0,
			"byteLength":1332,
			"byteOffset":307792,
			"target":34962
		},
		{
			"buffer":0,
			"byteLength":1332,
			"byteOffset":309124,
			"target":34962
		},
		{
			"buffer":0,
			"byteLength":444,
			"byteOffset":310456,
			"target":34962
		},
		{
			"buffer":0,
			"byteLength":1776,
			"byteOffset":310900,
			"target":34962
		},
		{
			"buffer":0,
			"byteLength":1092,
			"byteOffset":312676,
			"target":34963
		},
		{
			"buffer":0,
			"byteLength":1356,
			"byteOffset":313768,
			"target":34962
		},
		{
			"buffer":0,
			"byteLength":1356,
			"byteOffset":315124,
			"target":34962
		},
		{
			"buffer":0,
			"byteLength":452,
			"byteOffset":316480,
			"target":34962
		},
		{
			"buffer":0,
			"byteLength":1808,
			"byteOffset":316932,
			"target":34962
		},
		{
			"buffer":0,
			"byteLength":1050,
			"byteOffset":318740,
			"target":34963
		},
		{
			"buffer":0,
			"byteLength":1632,
			"byteOffset":319792,
			"target":34962
		},
		{
			"buffer":0,
			"byteLength":1632,
			"byteOffset":321424,
			"target":34962
		},
		{
			"buffer":0,
			"byteLength":544,
			"byteOffset":323056,
			"target":34962
		},
		{
			"buffer":0,
			"byteLength":2176,
			"byteOffset":323600,
			"target":34962
		},
		{
			"buffer":0,
			"byteLength":1344,
			"byteOffset":325776,
			"target":34963
		},
		{
			"buffer":0,
			"byteLength":732,
			"byteOffset":327120,
			"target":34962
		},
		{
			"buffer":0,
			"byteLength":732,
			"byteOffset":327852,
			"target":34962
		},
		{
			"buffer":0,
			"byteLength":244,
			"byteOffset":328584,
			"target":34962
		},
		{
			"buffer":0,
			"byteLength":976,
			"byteOffset":328828,
			"target":34962
		},
		{
			"buffer":0,
			"byteLength":612,
			"byteOffset":329804,
			"target":34963
		},
		{
			"buffer":0,
			"byteLength":100,
			"byteOffset":330416
		},
		{
			"buffer":0,
			"byteLength":300,
			"byteOffset":330516
		},
		{
			"buffer":0,
			"byteLength":8,
			"byteOffset":330816
		},
		{
			"buffer":0,
			"byteLength":32,
			"byteOffset":330824
		},
		{
			"buffer":0,
			"byteLength":24,
			"byteOffset":330856
		},
		{
			"buffer":0,
			"byteLength":24,
			"byteOffset":330880
		},
		{
			"buffer":0,
			"byteLength":400,
			"byteOffset":330904
		},
		{
			"buffer":0,
			"byteLength":24,
			"byteOffset":331304
		},
		{
			"buffer":0,
			"byteLength":24,
			"byteOffset":331328
		},
		{
			"buffer":0,
			"byteLength":400,
			"byteOffset":331352
		},
		{
			"buffer":0,
			"byteLength":24,
			"byteOffset":331752
		},
		{
			"buffer":0,
			"byteLength":24,
			"byteOffset":331776
		},
		{
			"buffer":0,
			"byteLength":24,
			"byteOffset":331800
		},
		{
			"buffer":0,
			"byteLength":24,
			"byteOffset":331824
		},
		{
			"buffer":0,
			"byteLength":400,
			"byteOffset":331848
		},
		{
			"buffer":0,
			"byteLength":24,
			"byteOffset":332248
		},
		{
			"buffer":0,
			"byteLength":24,
			"byteOffset":332272
		},
		{
			"buffer":0,
			"byteLength":32,
			"byteOffset":332296
		},
		{
			"buffer":0,
			"byteLength":24,
			"byteOffset":332328
		},
		{
			"buffer":0,
			"byteLength":24,
			"byteOffset":332352
		},
		{
			"buffer":0,
			"byteLength":32,
			"byteOffset":332376
		},
		{
			"buffer":0,
			"byteLength":24,
			"byteOffset":332408
		},
		{
			"buffer":0,
			"byteLength":24,
			"byteOffset":332432
		},
		{
			"buffer":0,
			"byteLength":400,
			"byteOffset":332456
		},
		{
			"buffer":0,
			"byteLength":24,
			"byteOffset":332856
		},
		{
			"buffer":0,
			"byteLength":24,
			"byteOffset":332880
		},
		{
			"buffer":0,
			"byteLength":32,
			"byteOffset":332904
		},
		{
			"buffer":0,
			"byteLength":24,
			"byteOffset":332936
		},
		{
			"buffer":0,
			"byteLength":24,
			"byteOffset":332960
		},
		{
			"buffer":0,
			"byteLength":32,
			"byteOffset":332984
		},
		{
			"buffer":0,
			"byteLength":24,
			"byteOffset":333016
		},
		{
			"buffer":0,
			"byteLength":24,
			"byteOffset":333040
		},
		{
			"buffer":0,
			"byteLength":196,
			"byteOffset":333064
		},
		{
			"buffer":0,
			"byteLength":588,
			"byteOffset":333260
		},
		{
			"buffer":0,
			"byteLength":8,
			"byteOffset":333848
		},
		{
			"buffer":0,
			"byteLength":32,
			"byteOffset":333856
		},
		{
			"buffer":0,
			"byteLength":24,
			"byteOffset":333888
		},
		{
			"buffer":0,
			"byteLength":32,
			"byteOffset":333912
		},
		{
			"buffer":0,
			"byteLength":784,
			"byteOffset":333944
		},
		{
			"buffer":0,
			"byteLength":24,
			"byteOffset":334728
		},
		{
			"buffer":0,
			"byteLength":784,
			"byteOffset":334752
		},
		{
			"buffer":0,
			"byteLength":24,
			"byteOffset":335536
		},
		{
			"buffer":0,
			"byteLength":24,
			"byteOffset":335560
		},
		{
			"buffer":0,
			"byteLength":32,
			"byteOffset":335584
		},
		{
			"buffer":0,
			"byteLength":24,
			"byteOffset":335616
		},
		{
			"buffer":0,
			"byteLength":24,
			"byteOffset":335640
		},
		{
			"buffer":0,
			"byteLength":32,
			"byteOffset":335664
		},
		{
			"buffer":0,
			"byteLength":24,
			"byteOffset":335696
		},
		{
			"buffer":0,
			"byteLength":784,
			"byteOffset":335720
		},
		{
			"buffer":0,
			"byteLength":24,
			"byteOffset":336504
		},
		{
			"buffer":0,
			"byteLength":32,
			"byteOffset":336528
		},
		{
			"buffer":0,
			"byteLength":24,
			"byteOffset":336560
		},
		{
			"buffer":0,
			"byteLength":32,
			"byteOffset":336584
		},
		{
			"buffer":0,
			"byteLength":784,
			"byteOffset":336616
		},
		{
			"buffer":0,
			"byteLength":84,
			"byteOffset":337400
		},
		{
			"buffer":0,
			"byteLength":252,
			"byteOffset":337484
		},
		{
			"buffer":0,
			"byteLength":8,
			"byteOffset":337736
		},
		{
			"buffer":0,
			"byteLength":336,
			"byteOffset":337744
		},
		{
			"buffer":0,
			"byteLength":24,
			"byteOffset":338080
		},
		{
			"buffer":0,
			"byteLength":24,
			"byteOffset":338104
		},
		{
			"buffer":0,
			"byteLength":336,
			"byteOffset":338128
		},
		{
			"buffer":0,
			"byteLength":336,
			"byteOffset":338464
		},
		{
			"buffer":0,
			"byteLength":24,
			"byteOffset":338800
		},
		{
			"buffer":0,
			"byteLength":24,
			"byteOffset":338824
		},
		{
			"buffer":0,
			"byteLength":336,
			"byteOffset":338848
		},
		{
			"buffer":0,
			"byteLength":336,
			"byteOffset":339184
		},
		{
			"buffer":0,
			"byteLength":24,
			"byteOffset":339520
		},
		{
			"buffer":0,
			"byteLength":336,
			"byteOffset":339544
		},
		{
			"buffer":0,
			"byteLength":24,
			"byteOffset":339880
		},
		{
			"buffer":0,
			"byteLength":24,
			"byteOffset":339904
		},
		{
			"buffer":0,
			"byteLength":32,
			"byteOffset":339928
		},
		{
			"buffer":0,
			"byteLength":24,
			"byteOffset":339960
		},
		{
			"buffer":0,
			"byteLength":24,
			"byteOffset":339984
		},
		{
			"buffer":0,
			"byteLength":32,
			"byteOffset":340008
		},
		{
			"buffer":0,
			"byteLength":24,
			"byteOffset":340040
		},
		{
			"buffer":0,
			"byteLength":24,
			"byteOffset":340064
		},
		{
			"buffer":0,
			"byteLength":336,
			"byteOffset":340088
		},
		{
			"buffer":0,
			"byteLength":24,
			"byteOffset":340424
		},
		{
			"buffer":0,
			"byteLength":24,
			"byteOffset":340448
		},
		{
			"buffer":0,
			"byteLength":32,
			"byteOffset":340472
		},
		{
			"buffer":0,
			"byteLength":24,
			"byteOffset":340504
		},
		{
			"buffer":0,
			"byteLength":24,
			"byteOffset":340528
		},
		{
			"buffer":0,
			"byteLength":32,
			"byteOffset":340552
		},
		{
			"buffer":0,
			"byteLength":24,
			"byteOffset":340584
		},
		{
			"buffer":0,
			"byteLength":8,
			"byteOffset":340608
		},
		{
			"buffer":0,
			"byteLength":24,
			"byteOffset":340616
		},
		{
			"buffer":0,
			"byteLength":32,
			"byteOffset":340640
		},
		{
			"buffer":0,
			"byteLength":32,
			"byteOffset":340672
		},
		{
			"buffer":0,
			"byteLength":24,
			"byteOffset":340704
		},
		{
			"buffer":0,
			"byteLength":24,
			"byteOffset":340728
		},
		{
			"buffer":0,
			"byteLength":148,
			"byteOffset":340752
		},
		{
			"buffer":0,
			"byteLength":592,
			"byteOffset":340900
		},
		{
			"buffer":0,
			"byteLength":24,
			"byteOffset":341492
		},
		{
			"buffer":0,
			"byteLength":24,
			"byteOffset":341516
		},
		{
			"buffer":0,
			"byteLength":32,
			"byteOffset":341540
		},
		{
			"buffer":0,
			"byteLength":24,
			"byteOffset":341572
		},
		{
			"buffer":0,
			"byteLength":32,
			"byteOffset":341596
		},
		{
			"buffer":0,
			"byteLength":24,
			"byteOffset":341628
		}
	],
	"buffers":[
		{
			"byteLength":341652,
			"uri":"data:application/octet-stream;base64,"
		}
	]
}
