{
	"asset":{
		"generator":"Khronos glTF Blender I/O v5.2.40",
		"version":"2.0"
	},
	"scene":0,
	"scenes":[
		{
			"name":"Scene",
			"nodes":[
				0
			]
		}
	],
	"nodes":[
		{
			"mesh":0,
			"name":"dump_pile"
		}
	],
	"materials":[
		{
			"doubleSided":true,
			"name":"palette",
			"pbrMetallicRoughness":{
				"metallicFactor":0,
				"roughnessFactor":0.6499999761581421
			}
		}
	],
	"meshes":[
		{
			"name":"dump_pile",
			"primitives":[
				{
					"attributes":{
						"POSITION":0,
						"NORMAL":1,
						"COLOR_0":2
					},
					"indices":3,
					"material":0
				}
			]
		}
	],
	"accessors":[
		{
			"bufferView":0,
			"componentType":5126,
			"count":1328,
			"max":[
				2.9099998474121094,
				2.6629114151000977,
				2.4099998474121094
			],
			"min":[
				-2.9099998474121094,
				0,
				-2.4099998474121094
			],
			"type":"VEC3"
		},
		{
			"bufferView":1,
			"componentType":5126,
			"count":1328,
			"type":"VEC3"
		},
		{
			"bufferView":2,
			"componentType":5126,
			"count":1328,
			"type":"VEC3"
		},
		{
			"bufferView":3,
			"componentType":5123,
			"count":2124,
			"type":"SCALAR"
		}
	],
	"bufferViews":[
		{
			"buffer":0,
			"byteLength":15936,
			"byteOffset":0,
			"target":34962
		},
		{
			"buffer":0,
			"byteLength":15936,
			"byteOffset":15936,
			"target":34962
		},
		{
			"buffer":0,
			"byteLength":15936,
			"byteOffset":31872,
			"target":34962
		},
		{
			"buffer":0,
			"byteLength":4248,
			"byteOffset":47808,
			"target":34963
		}
	],
	"buffers":[
		{
			"byteLength":52056,
			"uri":"data:application/octet-stream;base64,"
		}
	]
}
