{
	"asset":{
		"generator":"Khronos glTF Blender I/O v4.2.70",
		"version":"2.0"
	},
	"scene":0,
	"scenes":[
		{
			"name":"Scene",
			"nodes":[
				0
			]
		}
	],
	"nodes":[
		{
			"mesh":0,
			"name":"fence_gate"
		}
	],
	"materials":[
		{
			"doubleSided":true,
			"name":"palette",
			"pbrMetallicRoughness":{
				"metallicFactor":0,
				"roughnessFactor":0.6499999761581421
			}
		}
	],
	"meshes":[
		{
			"name":"fence_gate",
			"primitives":[
				{
					"attributes":{
						"POSITION":0,
						"NORMAL":1,
						"COLOR_0":2
					},
					"indices":3,
					"material":0
				}
			]
		}
	],
	"accessors":[
		{
			"bufferView":0,
			"componentType":5126,
			"count":692,
			"max":[
				1,
				0.6900545954704285,
				0.06999999284744263
			],
			"min":[
				-1,
				0,
				-0.06999999284744263
			],
			"type":"VEC3"
		},
		{
			"bufferView":1,
			"componentType":5126,
			"count":692,
			"type":"VEC3"
		},
		{
			"bufferView":2,
			"componentType":5126,
			"count":692,
			"type":"VEC3"
		},
		{
			"bufferView":3,
			"componentType":5123,
			"count":1572,
			"type":"SCALAR"
		}
	],
	"bufferViews":[
		{
			"buffer":0,
			"byteLength":8304,
			"byteOffset":0,
			"target":34962
		},
		{
			"buffer":0,
			"byteLength":8304,
			"byteOffset":8304,
			"target":34962
		},
		{
			"buffer":0,
			"byteLength":8304,
			"byteOffset":16608,
			"target":34962
		},
		{
			"buffer":0,
			"byteLength":3144,
			"byteOffset":24912,
			"target":34963
		}
	],
	"buffers":[
		{
			"byteLength":28056,
			"uri":"data:application/octet-stream;base64,"
		}
	]
}
