{
	"asset":{
		"generator":"Khronos glTF Blender I/O v5.2.40",
		"version":"2.0"
	},
	"scene":0,
	"scenes":[
		{
			"name":"Scene",
			"nodes":[
				0
			]
		}
	],
	"nodes":[
		{
			"mesh":0,
			"name":"garden"
		}
	],
	"materials":[
		{
			"doubleSided":true,
			"name":"palette",
			"pbrMetallicRoughness":{
				"metallicFactor":0,
				"roughnessFactor":0.6499999761581421
			}
		}
	],
	"meshes":[
		{
			"name":"garden",
			"primitives":[
				{
					"attributes":{
						"POSITION":0,
						"NORMAL":1,
						"COLOR_0":2
					},
					"indices":3,
					"material":0
				}
			]
		}
	],
	"accessors":[
		{
			"bufferView":0,
			"componentType":5126,
			"count":1592,
			"max":[
				3.5,
				1.409999966621399,
				2.424999952316284
			],
			"min":[
				-3.5,
				-0.032799333333969116,
				-1.8523106575012207
			],
			"type":"VEC3"
		},
		{
			"bufferView":1,
			"componentType":5126,
			"count":1592,
			"type":"VEC3"
		},
		{
			"bufferView":2,
			"componentType":5126,
			"count":1592,
			"type":"VEC3"
		},
		{
			"bufferView":3,
			"componentType":5123,
			"count":2784,
			"type":"SCALAR"
		}
	],
	"bufferViews":[
		{
			"buffer":0,
			"byteLength":19104,
			"byteOffset":0,
			"target":34962
		},
		{
			"buffer":0,
			"byteLength":19104,
			"byteOffset":19104,
			"target":34962
		},
		{
			"buffer":0,
			"byteLength":19104,
			"byteOffset":38208,
			"target":34962
		},
		{
			"buffer":0,
			"byteLength":5568,
			"byteOffset":57312,
			"target":34963
		}
	],
	"buffers":[
		{
			"byteLength":62880,
			"uri":"data:application/octet-stream;base64,"
		}
	]
}
