{
	"asset":{
		"generator":"Khronos glTF Blender I/O v5.2.40",
		"version":"2.0"
	},
	"scene":0,
	"scenes":[
		{
			"name":"Scene",
			"nodes":[
				0
			]
		}
	],
	"nodes":[
		{
			"mesh":0,
			"name":"garden_broken"
		}
	],
	"materials":[
		{
			"doubleSided":true,
			"name":"palette",
			"pbrMetallicRoughness":{
				"metallicFactor":0,
				"roughnessFactor":0.6499999761581421
			}
		}
	],
	"meshes":[
		{
			"name":"garden_broken",
			"primitives":[
				{
					"attributes":{
						"POSITION":0,
						"NORMAL":1,
						"COLOR_0":2
					},
					"indices":3,
					"material":0
				}
			]
		}
	],
	"accessors":[
		{
			"bufferView":0,
			"componentType":5126,
			"count":872,
			"max":[
				2.799999952316284,
				0.4650000035762787,
				2.424999952316284
			],
			"min":[
				-3.3499999046325684,
				0,
				-1.6500000953674316
			],
			"type":"VEC3"
		},
		{
			"bufferView":1,
			"componentType":5126,
			"count":872,
			"type":"VEC3"
		},
		{
			"bufferView":2,
			"componentType":5126,
			"count":872,
			"type":"VEC3"
		},
		{
			"bufferView":3,
			"componentType":5123,
			"count":1260,
			"type":"SCALAR"
		}
	],
	"bufferViews":[
		{
			"buffer":0,
			"byteLength":10464,
			"byteOffset":0,
			"target":34962
		},
		{
			"buffer":0,
			"byteLength":10464,
			"byteOffset":10464,
			"target":34962
		},
		{
			"buffer":0,
			"byteLength":10464,
			"byteOffset":20928,
			"target":34962
		},
		{
			"buffer":0,
			"byteLength":2520,
			"byteOffset":31392,
			"target":34963
		}
	],
	"buffers":[
		{
			"byteLength":33912,
			"uri":"data:application/octet-stream;base64,"
		}
	]
}
