{
	"asset":{
		"generator":"Khronos glTF Blender I/O v4.2.70",
		"version":"2.0"
	},
	"scene":0,
	"scenes":[
		{
			"name":"Scene",
			"nodes":[
				0
			]
		}
	],
	"nodes":[
		{
			"mesh":0,
			"name":"house_3"
		}
	],
	"materials":[
		{
			"doubleSided":true,
			"name":"palette",
			"pbrMetallicRoughness":{
				"metallicFactor":0,
				"roughnessFactor":0.6499999761581421
			}
		}
	],
	"meshes":[
		{
			"name":"house_3",
			"primitives":[
				{
					"attributes":{
						"POSITION":0,
						"NORMAL":1,
						"COLOR_0":2
					},
					"indices":3,
					"material":0
				}
			]
		}
	],
	"accessors":[
		{
			"bufferView":0,
			"componentType":5126,
			"count":2172,
			"max":[
				3,
				4.543795585632324,
				2.0058393478393555
			],
			"min":[
				-3,
				0,
				-2.0058393478393555
			],
			"type":"VEC3"
		},
		{
			"bufferView":1,
			"componentType":5126,
			"count":2172,
			"type":"VEC3"
		},
		{
			"bufferView":2,
			"componentType":5126,
			"count":2172,
			"type":"VEC3"
		},
		{
			"bufferView":3,
			"componentType":5123,
			"count":3630,
			"type":"SCALAR"
		}
	],
	"bufferViews":[
		{
			"buffer":0,
			"byteLength":26064,
			"byteOffset":0,
			"target":34962
		},
		{
			"buffer":0,
			"byteLength":26064,
			"byteOffset":26064,
			"target":34962
		},
		{
			"buffer":0,
			"byteLength":26064,
			"byteOffset":52128,
			"target":34962
		},
		{
			"buffer":0,
			"byteLength":7260,
			"byteOffset":78192,
			"target":34963
		}
	],
	"buffers":[
		{
			"byteLength":85452,
			"uri":"data:application/octet-stream;base64,"
		}
	]
}
