{
	"asset":{
		"generator":"Khronos glTF Blender I/O v4.2.70",
		"version":"2.0"
	},
	"scene":0,
	"scenes":[
		{
			"name":"Scene",
			"nodes":[
				0
			]
		}
	],
	"nodes":[
		{
			"mesh":0,
			"name":"house_2"
		}
	],
	"materials":[
		{
			"doubleSided":true,
			"name":"palette",
			"pbrMetallicRoughness":{
				"metallicFactor":0,
				"roughnessFactor":0.6499999761581421
			}
		}
	],
	"meshes":[
		{
			"name":"house_2",
			"primitives":[
				{
					"attributes":{
						"POSITION":0,
						"NORMAL":1,
						"COLOR_0":2
					},
					"indices":3,
					"material":0
				}
			]
		}
	],
	"accessors":[
		{
			"bufferView":0,
			"componentType":5126,
			"count":2138,
			"max":[
				2.999999761581421,
				4.8206939697265625,
				2.3977460861206055
			],
			"min":[
				-2.999999761581421,
				0,
				-2.3977460861206055
			],
			"type":"VEC3"
		},
		{
			"bufferView":1,
			"componentType":5126,
			"count":2138,
			"type":"VEC3"
		},
		{
			"bufferView":2,
			"componentType":5126,
			"count":2138,
			"type":"VEC3"
		},
		{
			"bufferView":3,
			"componentType":5123,
			"count":3588,
			"type":"SCALAR"
		}
	],
	"bufferViews":[
		{
			"buffer":0,
			"byteLength":25656,
			"byteOffset":0,
			"target":34962
		},
		{
			"buffer":0,
			"byteLength":25656,
			"byteOffset":25656,
			"target":34962
		},
		{
			"buffer":0,
			"byteLength":25656,
			"byteOffset":51312,
			"target":34962
		},
		{
			"buffer":0,
			"byteLength":7176,
			"byteOffset":76968,
			"target":34963
		}
	],
	"buffers":[
		{
			"byteLength":84144,
			"uri":"data:application/octet-stream;base64,"
		}
	]
}
