{
	"asset":{
		"generator":"Khronos glTF Blender I/O v5.2.40",
		"version":"2.0"
	},
	"scene":0,
	"scenes":[
		{
			"name":"Scene",
			"nodes":[
				0
			]
		}
	],
	"nodes":[
		{
			"mesh":0,
			"name":"keller_house"
		}
	],
	"materials":[
		{
			"doubleSided":true,
			"name":"palette",
			"pbrMetallicRoughness":{
				"metallicFactor":0,
				"roughnessFactor":0.6499999761581421
			}
		}
	],
	"meshes":[
		{
			"name":"keller_house",
			"primitives":[
				{
					"attributes":{
						"POSITION":0,
						"NORMAL":1,
						"COLOR_0":2
					},
					"indices":3,
					"material":0
				}
			]
		}
	],
	"accessors":[
		{
			"bufferView":0,
			"componentType":5126,
			"count":2080,
			"max":[
				2.8399999141693115,
				5.074999809265137,
				3.0410239696502686
			],
			"min":[
				-2.8399999141693115,
				0,
				-2.6301581859588623
			],
			"type":"VEC3"
		},
		{
			"bufferView":1,
			"componentType":5126,
			"count":2080,
			"type":"VEC3"
		},
		{
			"bufferView":2,
			"componentType":5126,
			"count":2080,
			"type":"VEC3"
		},
		{
			"bufferView":3,
			"componentType":5123,
			"count":3528,
			"type":"SCALAR"
		}
	],
	"bufferViews":[
		{
			"buffer":0,
			"byteLength":24960,
			"byteOffset":0,
			"target":34962
		},
		{
			"buffer":0,
			"byteLength":24960,
			"byteOffset":24960,
			"target":34962
		},
		{
			"buffer":0,
			"byteLength":24960,
			"byteOffset":49920,
			"target":34962
		},
		{
			"buffer":0,
			"byteLength":7056,
			"byteOffset":74880,
			"target":34963
		}
	],
	"buffers":[
		{
			"byteLength":81936,
			"uri":"data:application/octet-stream;base64,"
		}
	]
}
