{
	"asset":{
		"generator":"Khronos glTF Blender I/O v5.2.40",
		"version":"2.0"
	},
	"scene":0,
	"scenes":[
		{
			"name":"Scene",
			"nodes":[
				0
			]
		}
	],
	"nodes":[
		{
			"mesh":0,
			"name":"park_broken"
		}
	],
	"materials":[
		{
			"doubleSided":true,
			"name":"palette",
			"pbrMetallicRoughness":{
				"metallicFactor":0,
				"roughnessFactor":0.6499999761581421
			}
		}
	],
	"meshes":[
		{
			"name":"park_broken",
			"primitives":[
				{
					"attributes":{
						"POSITION":0,
						"NORMAL":1,
						"COLOR_0":2
					},
					"indices":3,
					"material":0
				}
			]
		}
	],
	"accessors":[
		{
			"bufferView":0,
			"componentType":5126,
			"count":1318,
			"max":[
				6,
				2.7184743881225586,
				5
			],
			"min":[
				-6,
				0,
				-5
			],
			"type":"VEC3"
		},
		{
			"bufferView":1,
			"componentType":5126,
			"count":1318,
			"type":"VEC3"
		},
		{
			"bufferView":2,
			"componentType":5126,
			"count":1318,
			"type":"VEC3"
		},
		{
			"bufferView":3,
			"componentType":5123,
			"count":2304,
			"type":"SCALAR"
		}
	],
	"bufferViews":[
		{
			"buffer":0,
			"byteLength":15816,
			"byteOffset":0,
			"target":34962
		},
		{
			"buffer":0,
			"byteLength":15816,
			"byteOffset":15816,
			"target":34962
		},
		{
			"buffer":0,
			"byteLength":15816,
			"byteOffset":31632,
			"target":34962
		},
		{
			"buffer":0,
			"byteLength":4608,
			"byteOffset":47448,
			"target":34963
		}
	],
	"buffers":[
		{
			"byteLength":52056,
			"uri":"data:application/octet-stream;base64,"
		}
	]
}
