{
	"asset":{
		"generator":"Khronos glTF Blender I/O v5.2.40",
		"version":"2.0"
	},
	"scene":0,
	"scenes":[
		{
			"name":"Scene",
			"nodes":[
				0
			]
		}
	],
	"nodes":[
		{
			"mesh":0,
			"name":"park"
		}
	],
	"materials":[
		{
			"doubleSided":true,
			"name":"palette",
			"pbrMetallicRoughness":{
				"metallicFactor":0,
				"roughnessFactor":0.6499999761581421
			}
		}
	],
	"meshes":[
		{
			"name":"park",
			"primitives":[
				{
					"attributes":{
						"POSITION":0,
						"NORMAL":1,
						"COLOR_0":2
					},
					"indices":3,
					"material":0
				}
			]
		}
	],
	"accessors":[
		{
			"bufferView":0,
			"componentType":5126,
			"count":2976,
			"max":[
				6,
				3.432204246520996,
				5
			],
			"min":[
				-6,
				0,
				-5
			],
			"type":"VEC3"
		},
		{
			"bufferView":1,
			"componentType":5126,
			"count":2976,
			"type":"VEC3"
		},
		{
			"bufferView":2,
			"componentType":5126,
			"count":2976,
			"type":"VEC3"
		},
		{
			"bufferView":3,
			"componentType":5123,
			"count":5010,
			"type":"SCALAR"
		}
	],
	"bufferViews":[
		{
			"buffer":0,
			"byteLength":35712,
			"byteOffset":0,
			"target":34962
		},
		{
			"buffer":0,
			"byteLength":35712,
			"byteOffset":35712,
			"target":34962
		},
		{
			"buffer":0,
			"byteLength":35712,
			"byteOffset":71424,
			"target":34962
		},
		{
			"buffer":0,
			"byteLength":10020,
			"byteOffset":107136,
			"target":34963
		}
	],
	"buffers":[
		{
			"byteLength":117156,
			"uri":"data:application/octet-stream;base64,"
		}
	]
}
