{
	"asset":{
		"generator":"Khronos glTF Blender I/O v5.2.40",
		"version":"2.0"
	},
	"scene":0,
	"scenes":[
		{
			"name":"Scene",
			"nodes":[
				0
			]
		}
	],
	"nodes":[
		{
			"mesh":0,
			"name":"pharmacy"
		}
	],
	"materials":[
		{
			"doubleSided":true,
			"name":"palette",
			"pbrMetallicRoughness":{
				"metallicFactor":0,
				"roughnessFactor":0.6499999761581421
			}
		}
	],
	"meshes":[
		{
			"name":"pharmacy",
			"primitives":[
				{
					"attributes":{
						"POSITION":0,
						"NORMAL":1,
						"COLOR_0":2
					},
					"indices":3,
					"material":0
				}
			]
		}
	],
	"accessors":[
		{
			"bufferView":0,
			"componentType":5126,
			"count":1070,
			"max":[
				3.9000000953674316,
				4.799999713897705,
				2.5799999237060547
			],
			"min":[
				-3.1500000953674316,
				0,
				-2.3500001430511475
			],
			"type":"VEC3"
		},
		{
			"bufferView":1,
			"componentType":5126,
			"count":1070,
			"type":"VEC3"
		},
		{
			"bufferView":2,
			"componentType":5126,
			"count":1070,
			"type":"VEC3"
		},
		{
			"bufferView":3,
			"componentType":5123,
			"count":1620,
			"type":"SCALAR"
		}
	],
	"bufferViews":[
		{
			"buffer":0,
			"byteLength":12840,
			"byteOffset":0,
			"target":34962
		},
		{
			"buffer":0,
			"byteLength":12840,
			"byteOffset":12840,
			"target":34962
		},
		{
			"buffer":0,
			"byteLength":12840,
			"byteOffset":25680,
			"target":34962
		},
		{
			"buffer":0,
			"byteLength":3240,
			"byteOffset":38520,
			"target":34963
		}
	],
	"buffers":[
		{
			"byteLength":41760,
			"uri":"data:application/octet-stream;base64,"
		}
	]
}
