{
	"asset":{
		"generator":"Khronos glTF Blender I/O v5.2.40",
		"version":"2.0"
	},
	"scene":0,
	"scenes":[
		{
			"name":"Scene",
			"nodes":[
				0
			]
		}
	],
	"nodes":[
		{
			"mesh":0,
			"name":"playground"
		}
	],
	"materials":[
		{
			"doubleSided":true,
			"name":"palette",
			"pbrMetallicRoughness":{
				"metallicFactor":0,
				"roughnessFactor":0.6499999761581421
			}
		}
	],
	"meshes":[
		{
			"name":"playground",
			"primitives":[
				{
					"attributes":{
						"POSITION":0,
						"NORMAL":1,
						"COLOR_0":2
					},
					"indices":3,
					"material":0
				}
			]
		}
	],
	"accessors":[
		{
			"bufferView":0,
			"componentType":5126,
			"count":1008,
			"max":[
				3.799999952316284,
				3.0999999046325684,
				3.799999952316284
			],
			"min":[
				-3.799999952316284,
				-0.018117332831025124,
				-3.799999952316284
			],
			"type":"VEC3"
		},
		{
			"bufferView":1,
			"componentType":5126,
			"count":1008,
			"type":"VEC3"
		},
		{
			"bufferView":2,
			"componentType":5126,
			"count":1008,
			"type":"VEC3"
		},
		{
			"bufferView":3,
			"componentType":5123,
			"count":1572,
			"type":"SCALAR"
		}
	],
	"bufferViews":[
		{
			"buffer":0,
			"byteLength":12096,
			"byteOffset":0,
			"target":34962
		},
		{
			"buffer":0,
			"byteLength":12096,
			"byteOffset":12096,
			"target":34962
		},
		{
			"buffer":0,
			"byteLength":12096,
			"byteOffset":24192,
			"target":34962
		},
		{
			"buffer":0,
			"byteLength":3144,
			"byteOffset":36288,
			"target":34963
		}
	],
	"buffers":[
		{
			"byteLength":39432,
			"uri":"data:application/octet-stream;base64,"
		}
	]
}
