{
	"asset":{
		"generator":"Khronos glTF Blender I/O v4.2.70",
		"version":"2.0"
	},
	"scene":0,
	"scenes":[
		{
			"name":"Scene",
			"nodes":[
				0
			]
		}
	],
	"nodes":[
		{
			"mesh":0,
			"name":"potted_bush"
		}
	],
	"materials":[
		{
			"doubleSided":true,
			"name":"palette",
			"pbrMetallicRoughness":{
				"metallicFactor":0,
				"roughnessFactor":0.6499999761581421
			}
		}
	],
	"meshes":[
		{
			"name":"potted_bush",
			"primitives":[
				{
					"attributes":{
						"POSITION":0,
						"NORMAL":1,
						"COLOR_0":2
					},
					"indices":3,
					"material":0
				}
			]
		}
	],
	"accessors":[
		{
			"bufferView":0,
			"componentType":5126,
			"count":99,
			"max":[
				0.29857438802719116,
				1.1999999284744263,
				0.31392037868499756
			],
			"min":[
				-0.29857438802719116,
				0,
				-0.31392037868499756
			],
			"type":"VEC3"
		},
		{
			"bufferView":1,
			"componentType":5126,
			"count":99,
			"type":"VEC3"
		},
		{
			"bufferView":2,
			"componentType":5126,
			"count":99,
			"type":"VEC3"
		},
		{
			"bufferView":3,
			"componentType":5123,
			"count":216,
			"type":"SCALAR"
		}
	],
	"bufferViews":[
		{
			"buffer":0,
			"byteLength":1188,
			"byteOffset":0,
			"target":34962
		},
		{
			"buffer":0,
			"byteLength":1188,
			"byteOffset":1188,
			"target":34962
		},
		{
			"buffer":0,
			"byteLength":1188,
			"byteOffset":2376,
			"target":34962
		},
		{
			"buffer":0,
			"byteLength":432,
			"byteOffset":3564,
			"target":34963
		}
	],
	"buffers":[
		{
			"byteLength":3996,
			"uri":"data:application/octet-stream;base64,"
		}
	]
}
