{
	"asset":{
		"generator":"Khronos glTF Blender I/O v4.2.70",
		"version":"2.0"
	},
	"scene":0,
	"scenes":[
		{
			"name":"Scene",
			"nodes":[
				0
			]
		}
	],
	"nodes":[
		{
			"mesh":0,
			"name":"road_corner"
		}
	],
	"materials":[
		{
			"doubleSided":true,
			"name":"palette",
			"pbrMetallicRoughness":{
				"metallicFactor":0,
				"roughnessFactor":0.6499999761581421
			}
		}
	],
	"meshes":[
		{
			"name":"road_corner",
			"primitives":[
				{
					"attributes":{
						"POSITION":0,
						"NORMAL":1,
						"COLOR_0":2
					},
					"indices":3,
					"material":0
				}
			]
		}
	],
	"accessors":[
		{
			"bufferView":0,
			"componentType":5126,
			"count":221,
			"max":[
				3,
				0.2999999523162842,
				3
			],
			"min":[
				-3,
				0,
				-3
			],
			"type":"VEC3"
		},
		{
			"bufferView":1,
			"componentType":5126,
			"count":221,
			"type":"VEC3"
		},
		{
			"bufferView":2,
			"componentType":5126,
			"count":221,
			"type":"VEC3"
		},
		{
			"bufferView":3,
			"componentType":5123,
			"count":516,
			"type":"SCALAR"
		}
	],
	"bufferViews":[
		{
			"buffer":0,
			"byteLength":2652,
			"byteOffset":0,
			"target":34962
		},
		{
			"buffer":0,
			"byteLength":2652,
			"byteOffset":2652,
			"target":34962
		},
		{
			"buffer":0,
			"byteLength":2652,
			"byteOffset":5304,
			"target":34962
		},
		{
			"buffer":0,
			"byteLength":1032,
			"byteOffset":7956,
			"target":34963
		}
	],
	"buffers":[
		{
			"byteLength":8988,
			"uri":"data:application/octet-stream;base64,"
		}
	]
}
