{
	"asset":{
		"generator":"Khronos glTF Blender I/O v5.2.40",
		"version":"2.0"
	},
	"scene":0,
	"scenes":[
		{
			"name":"Scene",
			"nodes":[
				0
			]
		}
	],
	"nodes":[
		{
			"mesh":0,
			"name":"school"
		}
	],
	"materials":[
		{
			"doubleSided":true,
			"name":"palette",
			"pbrMetallicRoughness":{
				"metallicFactor":0,
				"roughnessFactor":0.6499999761581421
			}
		}
	],
	"meshes":[
		{
			"name":"school",
			"primitives":[
				{
					"attributes":{
						"POSITION":0,
						"NORMAL":1,
						"COLOR_0":2
					},
					"indices":3,
					"material":0
				}
			]
		}
	],
	"accessors":[
		{
			"bufferView":0,
			"componentType":5126,
			"count":2456,
			"max":[
				5.940000057220459,
				9.399999618530273,
				3.5
			],
			"min":[
				-5.940000057220459,
				0,
				-3.109449863433838
			],
			"type":"VEC3"
		},
		{
			"bufferView":1,
			"componentType":5126,
			"count":2456,
			"type":"VEC3"
		},
		{
			"bufferView":2,
			"componentType":5126,
			"count":2456,
			"type":"VEC3"
		},
		{
			"bufferView":3,
			"componentType":5123,
			"count":3684,
			"type":"SCALAR"
		}
	],
	"bufferViews":[
		{
			"buffer":0,
			"byteLength":29472,
			"byteOffset":0,
			"target":34962
		},
		{
			"buffer":0,
			"byteLength":29472,
			"byteOffset":29472,
			"target":34962
		},
		{
			"buffer":0,
			"byteLength":29472,
			"byteOffset":58944,
			"target":34962
		},
		{
			"buffer":0,
			"byteLength":7368,
			"byteOffset":88416,
			"target":34963
		}
	],
	"buffers":[
		{
			"byteLength":95784,
			"uri":"data:application/octet-stream;base64,"
		}
	]
}
