{
	"asset":{
		"generator":"Khronos glTF Blender I/O v5.2.40",
		"version":"2.0"
	},
	"scene":0,
	"scenes":[
		{
			"name":"Scene",
			"nodes":[
				0
			]
		}
	],
	"nodes":[
		{
			"mesh":0,
			"name":"shop"
		}
	],
	"materials":[
		{
			"doubleSided":true,
			"name":"palette",
			"pbrMetallicRoughness":{
				"metallicFactor":0,
				"roughnessFactor":0.6499999761581421
			}
		}
	],
	"meshes":[
		{
			"name":"shop",
			"primitives":[
				{
					"attributes":{
						"POSITION":0,
						"NORMAL":1,
						"COLOR_0":2
					},
					"indices":3,
					"material":0
				}
			]
		}
	],
	"accessors":[
		{
			"bufferView":0,
			"componentType":5126,
			"count":1934,
			"max":[
				3.3499999046325684,
				4,
				2.5799999237060547
			],
			"min":[
				-3.3499999046325684,
				-0.05000000447034836,
				-2.3500001430511475
			],
			"type":"VEC3"
		},
		{
			"bufferView":1,
			"componentType":5126,
			"count":1934,
			"type":"VEC3"
		},
		{
			"bufferView":2,
			"componentType":5126,
			"count":1934,
			"type":"VEC3"
		},
		{
			"bufferView":3,
			"componentType":5123,
			"count":3096,
			"type":"SCALAR"
		}
	],
	"bufferViews":[
		{
			"buffer":0,
			"byteLength":23208,
			"byteOffset":0,
			"target":34962
		},
		{
			"buffer":0,
			"byteLength":23208,
			"byteOffset":23208,
			"target":34962
		},
		{
			"buffer":0,
			"byteLength":23208,
			"byteOffset":46416,
			"target":34962
		},
		{
			"buffer":0,
			"byteLength":6192,
			"byteOffset":69624,
			"target":34963
		}
	],
	"buffers":[
		{
			"byteLength":75816,
			"uri":"data:application/octet-stream;base64,"
		}
	]
}
