{
	"asset":{
		"generator":"Khronos glTF Blender I/O v5.2.40",
		"version":"2.0"
	},
	"scene":0,
	"scenes":[
		{
			"name":"Scene",
			"nodes":[
				0
			]
		}
	],
	"nodes":[
		{
			"mesh":0,
			"name":"statue"
		}
	],
	"materials":[
		{
			"doubleSided":true,
			"name":"palette",
			"pbrMetallicRoughness":{
				"metallicFactor":0,
				"roughnessFactor":0.6499999761581421
			}
		}
	],
	"meshes":[
		{
			"name":"statue",
			"primitives":[
				{
					"attributes":{
						"POSITION":0,
						"NORMAL":1,
						"COLOR_0":2
					},
					"indices":3,
					"material":0
				}
			]
		}
	],
	"accessors":[
		{
			"bufferView":0,
			"componentType":5126,
			"count":410,
			"max":[
				0.949999988079071,
				4.259999752044678,
				0.949999988079071
			],
			"min":[
				-0.949999988079071,
				0,
				-0.949999988079071
			],
			"type":"VEC3"
		},
		{
			"bufferView":1,
			"componentType":5126,
			"count":410,
			"type":"VEC3"
		},
		{
			"bufferView":2,
			"componentType":5126,
			"count":410,
			"type":"VEC3"
		},
		{
			"bufferView":3,
			"componentType":5123,
			"count":924,
			"type":"SCALAR"
		}
	],
	"bufferViews":[
		{
			"buffer":0,
			"byteLength":4920,
			"byteOffset":0,
			"target":34962
		},
		{
			"buffer":0,
			"byteLength":4920,
			"byteOffset":4920,
			"target":34962
		},
		{
			"buffer":0,
			"byteLength":4920,
			"byteOffset":9840,
			"target":34962
		},
		{
			"buffer":0,
			"byteLength":1848,
			"byteOffset":14760,
			"target":34963
		}
	],
	"buffers":[
		{
			"byteLength":16608,
			"uri":"data:application/octet-stream;base64,"
		}
	]
}
