{
	"asset":{
		"generator":"Khronos glTF Blender I/O v5.2.40",
		"version":"2.0"
	},
	"scene":0,
	"scenes":[
		{
			"name":"Scene",
			"nodes":[
				0,
				1
			]
		}
	],
	"nodes":[
		{
			"mesh":0,
			"name":"lamp",
			"translation":[
				0,
				4.71999979019165,
				0
			]
		},
		{
			"mesh":1,
			"name":"streetlight"
		}
	],
	"materials":[
		{
			"doubleSided":true,
			"name":"palette",
			"pbrMetallicRoughness":{
				"metallicFactor":0,
				"roughnessFactor":0.6499999761581421
			}
		}
	],
	"meshes":[
		{
			"name":"lamp",
			"primitives":[
				{
					"attributes":{
						"POSITION":0,
						"NORMAL":1,
						"COLOR_0":2
					},
					"indices":3,
					"material":0
				}
			]
		},
		{
			"name":"streetlight",
			"primitives":[
				{
					"attributes":{
						"POSITION":4,
						"NORMAL":5,
						"COLOR_0":6
					},
					"indices":7,
					"material":0
				}
			]
		}
	],
	"accessors":[
		{
			"bufferView":0,
			"componentType":5126,
			"count":36,
			"max":[
				0.16454482078552246,
				0.23000001907348633,
				0.1899999976158142
			],
			"min":[
				-0.16454482078552246,
				-0.2199997901916504,
				-0.1899999976158142
			],
			"type":"VEC3"
		},
		{
			"bufferView":1,
			"componentType":5126,
			"count":36,
			"type":"VEC3"
		},
		{
			"bufferView":2,
			"componentType":5126,
			"count":36,
			"type":"VEC3"
		},
		{
			"bufferView":3,
			"componentType":5123,
			"count":60,
			"type":"SCALAR"
		},
		{
			"bufferView":4,
			"componentType":5126,
			"count":324,
			"max":[
				0.3400000035762787,
				5.200000286102295,
				0.2944486439228058
			],
			"min":[
				-0.3400000035762787,
				0,
				-0.2944486439228058
			],
			"type":"VEC3"
		},
		{
			"bufferView":5,
			"componentType":5126,
			"count":324,
			"type":"VEC3"
		},
		{
			"bufferView":6,
			"componentType":5126,
			"count":324,
			"type":"VEC3"
		},
		{
			"bufferView":7,
			"componentType":5123,
			"count":522,
			"type":"SCALAR"
		}
	],
	"bufferViews":[
		{
			"buffer":0,
			"byteLength":432,
			"byteOffset":0,
			"target":34962
		},
		{
			"buffer":0,
			"byteLength":432,
			"byteOffset":432,
			"target":34962
		},
		{
			"buffer":0,
			"byteLength":432,
			"byteOffset":864,
			"target":34962
		},
		{
			"buffer":0,
			"byteLength":120,
			"byteOffset":1296,
			"target":34963
		},
		{
			"buffer":0,
			"byteLength":3888,
			"byteOffset":1416,
			"target":34962
		},
		{
			"buffer":0,
			"byteLength":3888,
			"byteOffset":5304,
			"target":34962
		},
		{
			"buffer":0,
			"byteLength":3888,
			"byteOffset":9192,
			"target":34962
		},
		{
			"buffer":0,
			"byteLength":1044,
			"byteOffset":13080,
			"target":34963
		}
	],
	"buffers":[
		{
			"byteLength":14124,
			"uri":"data:application/octet-stream;base64,"
		}
	]
}
