{
	"asset":{
		"generator":"Khronos glTF Blender I/O v5.2.40",
		"version":"2.0"
	},
	"scene":0,
	"scenes":[
		{
			"name":"Scene",
			"nodes":[
				0,
				1,
				2
			]
		}
	],
	"nodes":[
		{
			"mesh":0,
			"name":"clock_hour",
			"translation":[
				0,
				7.5,
				3.4000000953674316
			]
		},
		{
			"mesh":1,
			"name":"clock_minute",
			"translation":[
				0,
				7.5,
				3.4000000953674316
			]
		},
		{
			"mesh":2,
			"name":"townhall"
		}
	],
	"materials":[
		{
			"doubleSided":true,
			"name":"palette",
			"pbrMetallicRoughness":{
				"metallicFactor":0,
				"roughnessFactor":0.6499999761581421
			}
		}
	],
	"meshes":[
		{
			"name":"clock_hour",
			"primitives":[
				{
					"attributes":{
						"POSITION":0,
						"NORMAL":1,
						"COLOR_0":2
					},
					"indices":3,
					"material":0
				}
			]
		},
		{
			"name":"clock_minute",
			"primitives":[
				{
					"attributes":{
						"POSITION":4,
						"NORMAL":5,
						"COLOR_0":6
					},
					"indices":7,
					"material":0
				}
			]
		},
		{
			"name":"townhall",
			"primitives":[
				{
					"attributes":{
						"POSITION":8,
						"NORMAL":9,
						"COLOR_0":10
					},
					"indices":11,
					"material":0
				}
			]
		}
	],
	"accessors":[
		{
			"bufferView":0,
			"componentType":5126,
			"count":106,
			"max":[
				0.08559509366750717,
				0.49499988555908203,
				0.2655949592590332
			],
			"min":[
				-0.08559509366750717,
				-0.09000015258789062,
				0.09440469741821289
			],
			"type":"VEC3"
		},
		{
			"bufferView":1,
			"componentType":5126,
			"count":106,
			"type":"VEC3"
		},
		{
			"bufferView":2,
			"componentType":5126,
			"count":106,
			"type":"VEC3"
		},
		{
			"bufferView":3,
			"componentType":5123,
			"count":228,
			"type":"SCALAR"
		},
		{
			"bufferView":4,
			"componentType":5126,
			"count":24,
			"max":[
				0.03999999910593033,
				0.7700004577636719,
				0.22999978065490723
			],
			"min":[
				-0.03999999910593033,
				-0.04999971389770508,
				0.18999981880187988
			],
			"type":"VEC3"
		},
		{
			"bufferView":5,
			"componentType":5126,
			"count":24,
			"type":"VEC3"
		},
		{
			"bufferView":6,
			"componentType":5126,
			"count":24,
			"type":"VEC3"
		},
		{
			"bufferView":7,
			"componentType":5123,
			"count":36,
			"type":"SCALAR"
		},
		{
			"bufferView":8,
			"componentType":5126,
			"count":4836,
			"max":[
				6,
				12.40000057220459,
				4
			],
			"min":[
				-6,
				0,
				-4.1724348068237305
			],
			"type":"VEC3"
		},
		{
			"bufferView":9,
			"componentType":5126,
			"count":4836,
			"type":"VEC3"
		},
		{
			"bufferView":10,
			"componentType":5126,
			"count":4836,
			"type":"VEC3"
		},
		{
			"bufferView":11,
			"componentType":5123,
			"count":7950,
			"type":"SCALAR"
		}
	],
	"bufferViews":[
		{
			"buffer":0,
			"byteLength":1272,
			"byteOffset":0,
			"target":34962
		},
		{
			"buffer":0,
			"byteLength":1272,
			"byteOffset":1272,
			"target":34962
		},
		{
			"buffer":0,
			"byteLength":1272,
			"byteOffset":2544,
			"target":34962
		},
		{
			"buffer":0,
			"byteLength":456,
			"byteOffset":3816,
			"target":34963
		},
		{
			"buffer":0,
			"byteLength":288,
			"byteOffset":4272,
			"target":34962
		},
		{
			"buffer":0,
			"byteLength":288,
			"byteOffset":4560,
			"target":34962
		},
		{
			"buffer":0,
			"byteLength":288,
			"byteOffset":4848,
			"target":34962
		},
		{
			"buffer":0,
			"byteLength":72,
			"byteOffset":5136,
			"target":34963
		},
		{
			"buffer":0,
			"byteLength":58032,
			"byteOffset":5208,
			"target":34962
		},
		{
			"buffer":0,
			"byteLength":58032,
			"byteOffset":63240,
			"target":34962
		},
		{
			"buffer":0,
			"byteLength":58032,
			"byteOffset":121272,
			"target":34962
		},
		{
			"buffer":0,
			"byteLength":15900,
			"byteOffset":179304,
			"target":34963
		}
	],
	"buffers":[
		{
			"byteLength":195204,
			"uri":"data:application/octet-stream;base64,"
		}
	]
}
