{
	"asset":{
		"generator":"Khronos glTF Blender I/O v5.2.40",
		"version":"2.0"
	},
	"scene":0,
	"scenes":[
		{
			"name":"Scene",
			"nodes":[
				0
			]
		}
	],
	"nodes":[
		{
			"mesh":0,
			"name":"yard"
		}
	],
	"materials":[
		{
			"doubleSided":true,
			"name":"palette",
			"pbrMetallicRoughness":{
				"metallicFactor":0,
				"roughnessFactor":0.6499999761581421
			}
		}
	],
	"meshes":[
		{
			"name":"yard",
			"primitives":[
				{
					"attributes":{
						"POSITION":0,
						"NORMAL":1,
						"COLOR_0":2
					},
					"indices":3,
					"material":0
				}
			]
		}
	],
	"accessors":[
		{
			"bufferView":0,
			"componentType":5126,
			"count":1715,
			"max":[
				4.800000190734863,
				3.285166025161743,
				3.8899998664855957
			],
			"min":[
				-4.800000190734863,
				0,
				-3.799999952316284
			],
			"type":"VEC3"
		},
		{
			"bufferView":1,
			"componentType":5126,
			"count":1715,
			"type":"VEC3"
		},
		{
			"bufferView":2,
			"componentType":5126,
			"count":1715,
			"type":"VEC3"
		},
		{
			"bufferView":3,
			"componentType":5123,
			"count":2706,
			"type":"SCALAR"
		}
	],
	"bufferViews":[
		{
			"buffer":0,
			"byteLength":20580,
			"byteOffset":0,
			"target":34962
		},
		{
			"buffer":0,
			"byteLength":20580,
			"byteOffset":20580,
			"target":34962
		},
		{
			"buffer":0,
			"byteLength":20580,
			"byteOffset":41160,
			"target":34962
		},
		{
			"buffer":0,
			"byteLength":5412,
			"byteOffset":61740,
			"target":34963
		}
	],
	"buffers":[
		{
			"byteLength":67152,
			"uri":"data:application/octet-stream;base64,"
		}
	]
}
